<svg id="Layer_1" data-name="Layer 1" xmlns="http://www.w3.org/2000/svg" viewBox="0 0 1024 1024"><defs><style>.cls-1{fill:#fff;}.cls-2{fill:#c8e3da;}.cls-3{fill:#50aeaa;}.cls-4{fill:#c98817;}.cls-5{fill:#232323;}.cls-6{fill:#c97365;}.cls-7{fill:#db9b71;}.cls-8{fill:#ce6c4f;}.cls-9{fill:#c3e1dc;}.cls-10{fill:#ffcd6f;}.cls-11{fill:#ffe0ae;}.cls-12{fill:#f8ba40;}.cls-13{fill:#fc96d3;}.cls-14{fill:#3b9a93;}.cls-15{fill:#328167;}.cls-16{fill:#304b7d;}.cls-17{fill:#6acec7;}.cls-18{fill:#d96be8;}.cls-19{fill:#83e8e8;}.cls-20{fill:#f1ce4b;}.cls-21{fill:#ff719a;}.cls-22{fill:#dd4e58;}.cls-23{opacity:0.5;}.cls-24{fill:#161616;}</style></defs><rect class="cls-1" width="1024" height="1024"/><path class="cls-2" d="M943.22,497.28c0,134.2-61.3,254.07-157.42,333.16A431.28,431.28,0,0,0,247.6,838C146.09,759.06,80.78,635.8,80.78,497.28,80.78,259.13,273.85,66.06,512,66.06a429.7,429.7,0,0,1,173.17,36.18,83,83,0,0,0-21.83,56.56c0,44.74,34.38,81,76.79,81,23.94,0,45.31-11.55,59.4-29.66a38.38,38.38,0,0,0,32.17,17.92,37,37,0,0,0,14.71-3A429.42,429.42,0,0,1,943.22,497.28Z"/><path class="cls-1" d="M812.93,344.07a95.92,95.92,0,1,1,95.91-95.91A96,96,0,0,1,812.93,344.07Z"/><path class="cls-3" d="M797.39,247.86v39a6.74,6.74,0,0,1-6.74,6.74h-14a6.74,6.74,0,0,1-6.74-6.74v-39a6.75,6.75,0,0,1,6.74-6.74h14A6.75,6.75,0,0,1,797.39,247.86Z"/><path class="cls-4" d="M514.43,195.77a5.32,5.32,0,0,0-1.28-3.43c-2-2.28-6.34-3.49-12.61-3.49s-8.82,3.17-9.87,5.31A129.64,129.64,0,0,1,514.43,195.77Z"/><path class="cls-5" d="M381.84,307.15a126.76,126.76,0,0,0-16.17,6.73,102.24,102.24,0,0,0,3,20.89l7.83,27c.16-6.84,1.24-13.57,4.44-16.94C385.33,340.16,383.9,320,381.84,307.15Z"/><path class="cls-3" d="M519.28,294.81c.56-5.23,1.43-21.73-8-33.29-5.85-7.17-14.53-11-25.8-11.49-11.44-.46-20.7,2.7-27.51,9.4-11,10.78-12,27.22-12.13,31.69-7.95.47-15.2,1.2-21.69,2.09-5.13.7-9.94,1.51-14.43,2.38-23.14,4.5-37.88,10.78-44.13,13.84.14-20.6,6.58-38,13-50.21a122.06,122.06,0,0,1,21.63-29.77c6.08-6.09,22.17-15.76,43.09-22.75a173.29,173.29,0,0,1,19.87-5.37c25.91-5.37,63.66-6.71,96.44,17.35,31.28,23,39.86,61.08,41.54,89,.15,2.48.24,4.92.3,7.32A476.4,476.4,0,0,0,519.28,294.81Z"/><path class="cls-5" d="M585.52,340.64a14.17,14.17,0,0,0,4.73,6.77A30.57,30.57,0,0,1,598.12,359a229.84,229.84,0,0,0,3.39-39.81q-8.79-3-17.26-5.54C584.94,319.93,586.36,334.35,585.52,340.64Z"/><path class="cls-6" d="M403.13,851a8.18,8.18,0,0,0-6.92-5.71,7.65,7.65,0,0,0-.81,0,3.48,3.48,0,0,0-3.21,1.48c-2.05,3.7,2.17,18.33,6.37,22.06,3.07,2.73,8.55,2.81,10.89,2.71.06-2.38-2.38-9.13-3.74-12.91C404.7,855.81,403.75,853.19,403.13,851Z"/><path class="cls-7" d="M397.56,443.07l.6,0c-6.36-15-16.28-48.35-17.59-52.77-1.28-1.32-6.55-6.39-11.93-6.32a8.7,8.7,0,0,0-6.68,3.47c-10.55,12.31-11.25,25.89-2.14,41.51,5.12,8.78,15.47,12.15,23.63,13.42a9.24,9.24,0,0,1,14.11.72Zm-10.23-5.28c-4.57,0-10.23-3.29-11.49-4.05a2,2,0,1,1,2.08-3.42c3,1.84,8.27,4.09,10.44,3.33a1.09,1.09,0,0,0,.73-.74c.46-1.26-.38-2-4.46-4.11-2.94-1.49-6.27-3.18-7.94-6.25-2.85-5.22,1.39-10.11,5.12-12.75-1.62-4.62-5.67-12.94-11-12.3a4.61,4.61,0,0,0-3.3,1.83c-2.3,3-2,9-1.73,11a2,2,0,0,1-4,.58c-.06-.36-1.29-9.06,2.51-14a8.6,8.6,0,0,1,6-3.38c10.44-1.22,15.51,15.84,15.73,16.56l.43,1.5-1.34.78c-.07,0-7.13,4.37-5,8.28,1.08,2,3.7,3.3,6.24,4.59,3.64,1.86,8.18,4.16,6.41,9a5.07,5.07,0,0,1-3.16,3.15A7.29,7.29,0,0,1,387.33,437.79Z"/><path class="cls-8" d="M383.53,410.38S377.65,394.9,371,395.9s-13.85,24.86,6.65,36,13.7-1.17,5.09-7,.78-12.92.78-12.92"/><path class="cls-5" d="M271.76,909.32c-6.66-.83-18.86-19.92-22.53-25.9-3.22-2.73-6.42-7.53-9.56-14.38-3.95-8.63-6-12.57-7-14.37-4.32-3.29-9.34-9.35-11.9-20.45-.41-1.78-.92-3.77-1.52-6.07-5.89-22.94-18.16-70.68,24.84-108.58q5.82-5.13,11.39-9.39c-14.76,4.87-37.87,18.35-48.35,48.59-13.89,40.06,8,94,22.33,122.63,15.41,30.81,33.41,30.2,33.58,30.2a2.09,2.09,0,0,1,1,.21,39.4,39.4,0,0,0,11.38-2l-2.52-.33Z"/><path class="cls-8" d="M330,891.11c-5.23,0-13.86-1.11-25.89-6.19-19.46-8.24-61-25.29-64-26.53-.25-.06-.65-.16-1.19-.34,1.17,2.39,2.6,5.44,4.38,9.32,6.81,14.86,11.63,14.73,12.22,14.66l.82-.57.75.54c.24.09,23.61,9.43,40.56,14.82,16.76,5.34,36.83,6.16,37,6.17h.07c8.9-3.08,16.22-8,20.07-15.77l-19,3.28A23.84,23.84,0,0,1,330,891.11Z"/><path class="cls-8" d="M256.24,886a4.86,4.86,0,0,1-.6.08c6.41,9.74,13.81,19,16.62,19.31l1.14.15c2.62.36,5.68.73,9,1.06l.29-.16a2,2,0,0,1,2.53.42c11.09.94,24.89,1.27,37.47-.83a145.56,145.56,0,0,1-26.28-5.36C280.92,895.69,260.1,887.49,256.24,886Z"/><path class="cls-1" d="M390.18,443.42c-3.35,0-6.08,3.32-6.08,7.39s2.73,7.4,6.08,7.4,6.09-3.32,6.09-7.4S393.54,443.42,390.18,443.42Z"/><path class="cls-9" d="M390.77,455.27c-3.36,0-6.09-3.32-6.09-7.39,0-.08,0-.16,0-.24a8.89,8.89,0,0,0-.59,3.17c0,4.08,2.73,7.4,6.08,7.4s6-3.19,6.08-7.16A6.13,6.13,0,0,1,390.77,455.27Z"/><path class="cls-4" d="M629.53,369.3c3.77.52,51.23,7,63.91,7,5,0,14.77-1.83,15.35-5.32.55-3.3-5.37-16.6-103.28-50.37a232.23,232.23,0,0,1-3.75,40.77C611.33,359.25,621.84,362.25,629.53,369.3Z"/><path class="cls-7" d="M582,491.16c-3.72,20.9-57.45,80.07-66.14,89.53C504.84,572.92,433,522,417.41,499.12a2.07,2.07,0,0,0,.61.13h.37a21.81,21.81,0,0,0,5.83-.82,11,11,0,0,0,5.78-3.64,7.84,7.84,0,0,0,1.5-3.56C445,502.13,464.25,512,491,514.12q3.25.25,6.39.25c25.46,0,45.12-12.12,57.47-22.75,2.15-1.86,4.22-3.79,6.21-5.77.71,3.75,2.34,6.54,4.88,8.28a12,12,0,0,0,6.52,2h.49a19.76,19.76,0,0,0,6.57-1.17,2,2,0,1,0-1.44-3.73,16.5,16.5,0,0,1-2.88.71c-2.07.34-4.87.37-7-1.1s-3.37-4.45-3.53-8.73a124.52,124.52,0,0,0,10.05-12.48,8.94,8.94,0,0,1,5.16,3.25,14,14,0,0,1,2.61,6.54A36,36,0,0,1,582,491.16Z"/><path class="cls-8" d="M565.93,494.13a12,12,0,0,0,6.52,2c-60.57,89.09-142,8.75-148.23,2.33a11,11,0,0,0,5.78-3.64,7.84,7.84,0,0,0,1.5-3.56C445,502.13,464.25,512,491,514.12q3.25.25,6.39.25c25.46,0,45.12-12.12,57.47-22.75,2.15-1.86,4.22-3.79,6.21-5.77C561.76,489.6,563.39,492.39,565.93,494.13Z"/><path class="cls-7" d="M587.69,350.48c-5.2-4.33-6.13-9.19-6.17-9.4l-.06-.33,0-.34c.59-3.7.14-11.46-.42-18-.38-4.3-.8-8.09-1-9.94-69.28-20.34-122-19.8-155.12-15.3a229,229,0,0,0-39.28,8.73,170,170,0,0,1,2.06,19.42c.37,9-.27,18.44-3.93,22.3-4.89,5.16-3.32,23.8-2.07,32.34l2.75,9.49c1.6,5.41,11.84,39.66,17.86,53.24l.23,0,.48,1.62c0,.16,4.63,15.32,17.78,30.94a96.48,96.48,0,0,0,8.87,9.23,2,2,0,0,1,1.14,1c13,11.49,32.49,22.49,60.45,24.7,27.2,2.14,48.14-10.53,60.93-21.54a113.34,113.34,0,0,0,8.5-8.16,2,2,0,0,1,1.13-1.21c16.22-17.7,25.69-38.85,26.61-52a3.32,3.32,0,0,1,.13-.7,2,2,0,0,1,0-.88c.07-.37,5.48-28.78,7.68-47.93a1.82,1.82,0,0,1,0-.57c.12-.71.21-1.41.28-2.11,0-.16,0-.31.05-.46C597.58,362.89,591.21,353.42,587.69,350.48ZM480.89,407.1a2,2,0,0,1,3.8-1.27c.06.18,5.93,18.18-1.84,28.94-1,1.33-2,3.2-1.4,4.48.82,1.78,4.53,2.65,6.2,2.79a2,2,0,0,1-.16,4h-.16c-.76-.06-7.49-.72-9.51-5.09-1.13-2.44-.53-5.3,1.78-8.5C486.08,423.46,481,407.26,480.89,407.1Zm-77.13-42.28-.21-.11-.18-.15c-5.84-4.91-6.15-9.32-5.37-12.15,1-3.55,4.24-6.2,6.72-6.61,5.65-.95,24.43,4.81,41,16,12.05,8.13,12.16,14,11.15,16.81-1.09,3-4.38,4.91-8.4,4.91a12.1,12.1,0,0,1-1.33-.07C439.15,382.62,407.36,366.64,403.76,364.82Zm33.18,35.78a6.66,6.66,0,1,1,6.46-6.66A6.56,6.56,0,0,1,436.94,400.6Zm105.19,50.68c-.07.28-7,27.54-42.49,30.22q-3.17.24-6.12.24c-30.88,0-45.09-18.46-45.72-19.29l-2.09-2.79L542.8,448.5Zm2-56.16a6.66,6.66,0,1,1,6.46-6.65A6.56,6.56,0,0,1,544.16,395.12Zm19-33.94c-4.42,5.3-19.33,19.61-32.23,19.61a17.15,17.15,0,0,1-2-.12c-5.55-.7-8.65-2.39-9.48-5.19-1-3.3,1.38-7.13,7.66-12.41l.24-.18c7.84-4.82,26.61-16,31.14-15.13a8.43,8.43,0,0,1,6.51,5.27C565.9,355.71,565.25,358.61,563.11,361.18Z"/><path class="cls-5" d="M557.7,351.69c-2.48-.16-16.57,7.38-28.21,14.53-6.45,5.45-6.44,7.59-6.29,8.12.24.8,2,1.84,6.15,2.36,10.59,1.32,25.51-11.86,30.69-18.08,1.21-1.45,1.6-2.92,1.12-4.23A4.52,4.52,0,0,0,557.7,351.69Z"/><path class="cls-10" d="M605.48,316.36c39.71,13.65,68.77,25.42,86.39,35,2.51,1.37,4.77,2.68,6.82,4-24.19-25.07-80.59-55.8-95.16-63.52.75,5.09,1.3,10.34,1.62,15.77C605.33,310.53,605.44,313.48,605.48,316.36Z"/><path class="cls-11" d="M610.88,294.55s10.17,20.35,19.57,22.7,54,25.82,54,25.82S638.27,305.51,610.88,294.55Z"/><path class="cls-5" d="M453.08,377.21c.79-2.19-1.32-6.53-9.62-12.13-17-11.47-34.41-15.95-38.08-15.34a5.67,5.67,0,0,0-3.52,3.72c-.83,3,1.63,5.93,3.92,7.89,9.76,4.93,35.66,17.48,41.73,18.08C450.22,379.71,452.51,378.79,453.08,377.21Z"/><path class="cls-1" d="M537.28,453.16a33,33,0,0,1-2,4c-4.28,7.51-14.24,18.67-36,20.32s-35.95-6.53-43-12.26c-1.11-.9-2-1.74-2.8-2.47Z"/><path class="cls-7" d="M601.16,365.67c0,2.45-.22,5.58-.57,9.12,0,.47-.09.94-.15,1.42-1.77,16.69-6.26,41.25-7.58,48.3,7.34,1.44,29.15,3.6,39.7-18.13,5.52-11.36,4.13-23.36-3.72-32.11C621.65,366.25,610.7,362.9,601.16,365.67Zm24.64,20.58a2,2,0,0,1-2.79.44c-.12-.08-5.8-4.1-11.14-2.88-2.75.63-5,2.6-6.79,5.87-4.23,7.85,1.16,12.19,7,16,2.26,1.45,3.63,2.33,3.63,4,0,.12,0,.28,0,.45,0,1.78.16,5.49-2.61,8.08-1.72,1.62-4.22,2.43-7.43,2.43-.66,0-1.35,0-2.07-.1a2,2,0,0,1,.38-4c3,.3,5.18-.13,6.39-1.26,1.43-1.34,1.38-3.6,1.34-5-.41-.31-1.16-.8-1.8-1.21-4.41-2.83-14.74-9.46-8.41-21.23,2.34-4.33,5.52-7,9.45-7.87,7.17-1.63,14.07,3.34,14.36,3.55A2,2,0,0,1,625.8,386.25Z"/><path class="cls-8" d="M603.84,417.81s18,1.18,9.78-9.78c0,0-15.65-6.65-10.17-18.78s16.43-8.22,19.95-4.31,10.57,21.92-3.91,31.7S603.84,417.81,603.84,417.81Z"/><path class="cls-4" d="M449.85,290.91a357.77,357.77,0,0,1,65.46,3.32,57.31,57.31,0,0,0-.14-12c-20.91-10.62-56.08-6.16-62.95-5.16A54.24,54.24,0,0,0,449.85,290.91Z"/><path class="cls-7" d="M426.81,492.37c.87-1.15,1.06-2.68.56-4.67a103.27,103.27,0,0,1-9.7-10.07q-1.87-2.25-3.52-4.44a6.67,6.67,0,0,0-3.95,3.93c-1.18,3.1-1,9.07,5.91,20a2,2,0,0,1,2.06-1.88C419.92,495.31,424.9,494.9,426.81,492.37Z"/><path class="cls-8" d="M514.35,277.39A32.31,32.31,0,0,0,508.17,264c-5.1-6.24-12.78-9.6-22.85-10-10.3-.43-18.54,2.35-24.52,8.23a32.77,32.77,0,0,0-7,10.51C463.9,271.42,493.8,268.47,514.35,277.39Z"/><path class="cls-9" d="M608.14,830.94a7.72,7.72,0,0,1-1.09-4V812.38a7.75,7.75,0,0,1,7.74-7.74h49.57a7.62,7.62,0,0,1,5.13,2c6.18-2.18,13.6-7.17,20.4-13.09l-15.53-37c-.12-.41-3-10.32-16.73-8.95-15.67,1.56-69.24.07-71.51,0-.14,0-7.39-.38-10.36,3.84-.24.34-.49.73-.78,1.17-4.26,6.6-15.56,24.09-69,24.2h-.52c-53.41-.11-64.71-17.6-69-24.19-.29-.45-.55-.84-.78-1.18-2.94-4.18-10.22-3.85-10.29-3.85-2.34.07-55.91,1.55-71.58,0-13.85-1.39-16.62,8.53-16.73,8.95l-.09.27L320.9,795.2l5.51,6.37c2,.8,10.79,4.2,22.76,8.44a7.74,7.74,0,0,1,7.36-5.37h49.56a7.75,7.75,0,0,1,7.74,7.74V827a7.72,7.72,0,0,1-1.26,4.23,43.5,43.5,0,0,1,15.37,14.12H590.12C593.63,840.61,600.19,835.66,608.14,830.94Zm-1.09-65.52a7.75,7.75,0,0,1,7.74-7.74h49.57a7.75,7.75,0,0,1,7.74,7.74V780a7.75,7.75,0,0,1-7.74,7.74H614.79a7.75,7.75,0,0,1-7.74-7.74ZM413.84,780a7.75,7.75,0,0,1-7.74,7.74H356.53a7.75,7.75,0,0,1-7.74-7.74V765.42a7.75,7.75,0,0,1,7.74-7.74H406.1a7.76,7.76,0,0,1,7.74,7.74Z"/><path class="cls-5" d="M466.45,575.49a2,2,0,0,1,2.8.37q1.65,2.14,3,4.31a6.49,6.49,0,0,0,.42-2.31c0-3.22-2.27-5.83-5-5.83s-5,2.61-5,5.83,2.26,5.82,5,5.82a4.41,4.41,0,0,0,1.84-.4,57.76,57.76,0,0,0-3.43-5A2,2,0,0,1,466.45,575.49Z"/><path class="cls-12" d="M611.05,812.38V827a3.76,3.76,0,0,0,.57,1.94c16.37-9.13,37.16-17.07,49.61-20.29H614.79A3.75,3.75,0,0,0,611.05,812.38Z"/><rect class="cls-13" x="352.79" y="761.68" width="57.04" height="22.09" rx="3.74"/><path class="cls-5" d="M828,848.84a42.41,42.41,0,0,0,23.56-28.1,33.88,33.88,0,0,0,.91-9.19c-1.26,10.32-4.76,19.76-11.2,23.9C837.27,838,832.45,843.29,828,848.84Z"/><path class="cls-3" d="M870.14,838a59.23,59.23,0,0,1-5.09,9.38,56.82,56.82,0,0,1-10.16,11.51c-11,9.47-25.7,14.84-43.43,15.76a46.26,46.26,0,0,0,3.15-7.18c.7-1.09,4.21-6.48,8.75-12.63a48.28,48.28,0,0,0,23.79-16.2,46.69,46.69,0,0,0,8.27-16.92c3.3-12.45-.94-32.13-10.13-50.45a120.56,120.56,0,0,0-10-16.51C820,733.7,800,721.32,779,719.9c-2.08-1.45-4.24-2.82-6.48-4.08a67.36,67.36,0,0,0-7.44-3.64c-14.33-5.9-26.87-13.33-36-18.76-4.09-2.43-7.51-4.45-10.36-5.95,9.29-8.56,16.36-14.93,16.44-15a2,2,0,0,0-2.68-3c-.08.07-7.77,7-17.67,16.13a13.51,13.51,0,0,0-3.47-1c-.95-.1-2-.25-3.21-.42-1.74-.24-3.76-.52-6.06-.76-1.59-11.86-6.6-31.7-12.22-51.63,4.89-25.36-6.82-66.1-7.33-67.85a2,2,0,0,0-3.84,1.12c.11.37,9.28,32.31,8.27,56.6-7.91-27.14-16.08-51.88-17.21-53.57a2,2,0,0,0-3.37,2.15c1.2,2.34,10.92,31.8,19.38,61.62l-.06.3a2,2,0,0,0,.71,2c5.24,18.6,9.89,37.07,11.59,48.92a116.49,116.49,0,0,0-31.09,2.34c-19.65,3.93-27.46,1.1-36.49-2.18-1.53-.55-3.09-1.12-4.74-1.67a53.25,53.25,0,0,0-7-1.82c.5-3.88-1.83-14.5-30-35.45C564.81,626.64,562,599.29,562.23,586a9.63,9.63,0,0,0,7.61-9.69c0-5.42-4.06-9.82-9.05-9.82s-9,4.4-9,9.82a9.75,9.75,0,0,0,6.49,9.42c-.23,14,2.68,43,28,61.84,27.52,20.48,28.49,29.84,28.35,31.7-8.66-.76-15.5,1.51-18,6.5l-.13.25-.05.29c-.13.71-3,17.45,6.09,29.67.12.17.26.33.39.5H569.59a26,26,0,1,0-33.38,0H486.6a26,26,0,1,0-33.38,0H411.46c10.5-8.74,13.35-19.6,11.05-28.24a1.14,1.14,0,0,0,.1-.19c.12-.38,12.53-38.51,34.28-50.51,12.08-6.66,20-16.32,22.26-27.2,1.76-8.43.19-17.35-4.54-26.19a10.25,10.25,0,0,0,2.09-6.27c0-5.42-4.05-9.83-9-9.83s-9,4.41-9,9.83,4.05,9.82,9,9.82a8.37,8.37,0,0,0,3.81-.92c4,7.75,5.28,15.48,3.76,22.74-2.06,9.86-9.07,18.34-20.27,24.52-19,10.51-30.88,38.38-34.76,48.81-3.45-5.51-9.25-7.93-15-5.9-14.62,5.11-29.38,4.63-51.74,3.9l-3.86-.13c-6.17-.2-12.9-.41-20.24,0,3.44-6.28,6.35-14.91,8.79-24.47a1.86,1.86,0,0,0,.55-1c.23-1.23.43-2.46.61-3.69,7-29.77,9.69-65.82,9.85-68a2,2,0,1,0-4-.29c0,.38-1.47,19.26-4.8,40.89a195.69,195.69,0,0,0-7-41.84,2,2,0,0,0-3.83,1.15c.11.36,10.41,35.16,5.79,67.19-2.88,12.42-6.47,23.61-10.87,30.46-1.07.09-2.15.21-3.24.34-24.12-27.44-63.08-14-63.48-13.84a2,2,0,0,0,1.34,3.77c.36-.13,34.86-12,57.31,10.74-15.18,2.43-32.6,8.35-52.57,22-11,1.36-35.81,9.9-51.82,35.22a87.43,87.43,0,0,0-8.69,18.16C189,798.9,211.29,854,225.87,883.19c6.69,13.38,13.94,21.24,20.25,25.86-26.63-8.63-55.82-36.79-78.82-76.29-18.2-31.26-13.69-63.81-6.71-85.62a160.88,160.88,0,0,1,16.82-35.93h0c1.68-2.65,2.81-4.22,3-4.53,2.76-3.21,99.4-115.45,135.49-170,32.11-48.51,64.36-48.94,70.52-48.54q1.43,10.56,7.37,24a2,2,0,0,0,1.83,1.19,2,2,0,0,0,.81-.18,2,2,0,0,0,1-2.64c-8-18-9.61-32.26-4.61-41.15a19,19,0,0,1,12.86-9.21c.23.42.46.84.7,1.26,1.49,2.64,3.25,5.49,5.31,8.46a10.63,10.63,0,0,0-5.25,5.72c-1.58,4-1,9.15,1.7,15.34a66,66,0,0,0,5.62,10C430.54,526,511.6,582.58,515,585l1.42,1,1.19-1.27c2.61-2.81,64.1-69.05,68.33-92.84,1.72-9.67.69-16.93-3.07-21.58a13.05,13.05,0,0,0-5.85-4.15,117,117,0,0,0,10.1-18.83c.49-1.15.93-2.29,1.35-3.41a40.11,40.11,0,0,1,25.58,19.9c11.62,20.91-13.1,50.65-13.35,50.95a2,2,0,0,0,.24,2.82,2,2,0,0,0,1.29.47,2,2,0,0,0,1.53-.71c1-1.13,20.5-24.66,17-46.12,4.79-.73,18.27-2,35.59,3.35,20,6.16,49.37,22.6,75.65,66,40.15,66.3,72.08,125.61,84.05,148.23l.73,1.39c-.78-.52-1.53-1-2.23-1.43a56.54,56.54,0,0,0-7.28-3.94,2,2,0,1,0-1.56,3.68c.16.07,6.45,2.83,15.4,10l0,.07a2,2,0,0,0,1.31,1,132,132,0,0,1,20.72,21.65,172.57,172.57,0,0,1,24,43.66C877.8,792.23,878.72,818.25,870.14,838Z"/><path class="cls-14" d="M532.62,595.47s55.17-50.48,68.09-72.79C600.71,522.68,586.09,580.61,532.62,595.47Z"/><path class="cls-14" d="M462.62,577.86a5.68,5.68,0,0,0,0,.59q-1.93-1.14-3.89-2.35c-17.3-10.8-35.06-26.4-45.87-48.32.59.5,24.87,21.28,51.46,40.94,1.65,1.22,3.31,2.44,5,3.64a4.44,4.44,0,0,0-1.67-.33C464.88,572,462.62,574.64,462.62,577.86Z"/><path class="cls-14" d="M508.36,597.42a172,172,0,0,1-33.25-12.32c-2.15-1-4.35-2.15-6.59-3.36-.75-1.15-1.57-2.3-2.45-3.45a2,2,0,0,1,3.18-2.43q1.65,2.14,3,4.31a6.72,6.72,0,0,0,.41-2.31,6.28,6.28,0,0,0-1.51-4.16q2.76,2,5.51,3.92C488,585.53,499,592.65,508.36,597.42Z"/><path class="cls-14" d="M870.14,838a59.23,59.23,0,0,1-5.09,9.38,56.82,56.82,0,0,1-10.16,11.51,147.91,147.91,0,0,1-7.74-20.25c-5.39-18-8.66-41.77-1.86-67.37.35-1.35.74-2.7,1.15-4.06,5.84-19.11,3-34.32-3.22-46.07a172.57,172.57,0,0,1,24,43.66C877.8,792.23,878.72,818.25,870.14,838Z"/><path class="cls-14" d="M671.14,685.86S670,590.77,647.66,536.77c0,0,24.26,32.48,32.87,81,0,0,2.79-30.45-2.91-55.14,0,0,16.22,28.53,9.17,56.71,0,0,20.35,34.43,25.83,57.13l20.26-6.82L716.3,687.47S692.27,678.81,671.14,685.86Z"/><path class="cls-14" d="M353,680.81c-.19,1.35-.39,2.68-.61,4l-2.91-.1a201.59,201.59,0,0,0-22.79.19,2,2,0,0,1-1.42.62,2,2,0,0,1-1.17-.38h0c-1.58.16-3.2.35-4.84.58a30.81,30.81,0,0,0-3.39-3.55l.6-.1c-22.36-22.7-56.67-11-57.3-10.75A76.45,76.45,0,0,1,271,664.71c12.78-5.78,33.79-11.51,52.67.8,0,0,13.39-25.72,5.91-82.12v.08l6.18,33.78,3.54,19.3s6.13-28.44,8.9-54.9a198.23,198.23,0,0,0,1.28-24.92S360.05,630.71,353,680.81Z"/><path class="cls-7" d="M839.1,832.09c-5.66,3.64-12.59,11.89-18.13,19.29a2,2,0,0,0-1.56,2.1c-4.63,6.34-8,11.61-8.31,12.09l-.13.2-.08.24a43.46,43.46,0,0,1-21.54,24.6c-2.06.73-46.37,16.47-57.68,19.49s-25.74,1.52-25.82,1.51c-.23,0-22.68-3.15-34.9-7-8.64-2.7-12.37-9.82-13.7-13.2,14.41,3.61,33.3,9.43,33.55,9.51l.13,0a61.24,61.24,0,0,0,12.89,1.32A53,53,0,0,0,715.89,901c12.84-3,50.91-15,61.4-20.67a43.13,43.13,0,0,1,18.28-5.41,2,2,0,0,0,0-4c-.38,0-9.44.07-20.18,5.89-9.88,5.36-47.66,17.3-60.42,20.3-11,2.58-22.15.22-23.07,0-2.11-.65-32.44-10-45.06-12a22.18,22.18,0,0,1-13.9-8.13c14.87,1.63,39.9,4.23,47.59,4.23,14.62,0,25.28-.25,29.42-3.57,1.37-1.09,14.08-10.82,40.67-16.83,25.13-5.67,32.49-30.09,32.79-31.13a2,2,0,1,0-3.84-1.11c-.07.23-7,23.18-29.83,28.34-26.89,6.08-39.94,15.74-42.28,17.61-3.37,2.69-17.55,2.69-26.93,2.69-8,0-36.71-3-50.69-4.59a2,2,0,0,0-1.51-.17c-3.29-.36-5.53-.62-6.12-.69l-2.29-.62c6.62-2.4,12.12-5,13.61-5.72l71.86-22.65.14-.05c1-.39,24.05-9.68,30.56-17.82,6-7.54,16-15.24,16.1-15.32a2,2,0,0,0-2.44-3.17c-.43.32-10.44,8.06-16.78,16-5.7,7.12-27.47,16-28.85,16.58L632.19,861.6l-.27.11c-2.16,1-5.46,2.52-9.24,4,.05-.1.11-.18.16-.28,2.68-5.35-.56-20-6.46-24.28a6,6,0,0,0-4.8-1.16,7.46,7.46,0,0,0-3.81,2.14l-.13.12c-9.23,9.23-1.77,25.57-1.44,26.26l.15.26a6.88,6.88,0,0,0,1.64,1.72c-4.89,1.14-9.31,1.57-12,.52-3.75-1.44-6.24-3.86-7.21-7-1.28-4.12,0-9.45,3.72-15.06a2,2,0,0,0,.79-1.14c3.34-4.59,10.26-9.65,18.73-14.51a1.92,1.92,0,0,0,.44-.25c17.82-10.15,42.2-19.39,54.39-21.6a25.2,25.2,0,0,0,2.6-.64h0c7-2.1,15.37-7.59,23-14.21l.11,0a2,2,0,0,0,2-1.89A94.17,94.17,0,0,0,709,778.38c3.89-5.81,5.49-10.49,4.76-13.9a24.88,24.88,0,0,0-3-7.27c-5.68-9.58-17.46-19.53-26.65-26.75-7-5.5-15-5.42-27-5.28a229,229,0,0,1-31.88-1.4c-6.72-.8-12.16-3-16.25-6.68a1.42,1.42,0,0,0-.13-.12,23.37,23.37,0,0,1-3.12-3.39c-3.65-4.92-5.1-10.83-5.59-15.84a45.72,45.72,0,0,1,.17-10.47c2.68-4.67,13.13-5.51,24.05-1.87,1.62.54,3.15,1.09,4.65,1.63,9.59,3.49,17.88,6.5,38.64,2.34,19.92-4,32.42-2.23,39.89-1.19,1.23.17,2.34.33,3.32.44,2.79.31,8.68,3.8,16.14,8.23,9.26,5.49,21.93,13,36.54,19,25.68,10.58,44.26,40.38,44.45,40.68a2,2,0,1,0,3.4-2.1,134.71,134.71,0,0,0-26.05-29.72l0,0c17.45,3.24,33.85,14.55,46.79,32.43A116.56,116.56,0,0,1,846.86,785a.09.09,0,0,0,0,0C851.47,801.12,849,825.7,839.1,832.09Z"/><path class="cls-8" d="M839.1,832.09c-5.66,3.64-12.59,11.89-18.13,19.29a2,2,0,0,0-1.56,2.1c-4.63,6.34-8,11.61-8.31,12.09l-.13.2-.08.24a43.46,43.46,0,0,1-21.54,24.6c-2.06.73-46.37,16.47-57.68,19.49s-25.74,1.52-25.82,1.51c-.23,0-22.68-3.15-34.9-7-8.64-2.7-12.37-9.82-13.7-13.2,14.41,3.61,33.3,9.43,33.55,9.51l.13,0a61.24,61.24,0,0,0,12.89,1.32A53,53,0,0,0,715.89,901c12.84-3,50.91-15,61.4-20.67a43.13,43.13,0,0,1,18.28-5.41,2,2,0,0,0,0-4c-.38,0-9.44.07-20.18,5.89-9.88,5.36-47.66,17.3-60.42,20.3-11,2.58-22.15.22-23.07,0-2.11-.65-32.44-10-45.06-12a22.18,22.18,0,0,1-13.9-8.13c14.87,1.63,39.9,4.23,47.59,4.23,14.62,0,25.28-.25,29.42-3.57,1.37-1.09,14.08-10.82,40.67-16.83,25.13-5.67,32.49-30.09,32.79-31.13a2,2,0,1,0-3.84-1.11c-.07.23-7,23.18-29.83,28.34-26.89,6.08-39.94,15.74-42.28,17.61-3.37,2.69-17.55,2.69-26.93,2.69-8,0-36.71-3-50.69-4.59a2,2,0,0,0-1.51-.17c-3.29-.36-5.53-.62-6.12-.69l-2.29-.62c6.62-2.4,12.12-5,13.61-5.72l71.86-22.65.14-.05c1-.39,24.05-9.68,30.56-17.82,6-7.54,16-15.24,16.1-15.32a2,2,0,0,0-2.44-3.17c-.43.32-10.44,8.06-16.78,16-5.7,7.12-27.47,16-28.85,16.58L632.19,861.6l-.27.11c-2.16,1-5.46,2.52-9.24,4,.05-.1.11-.18.16-.28,2.68-5.35-.56-20-6.46-24.28a6,6,0,0,0-4.8-1.16,103.66,103.66,0,0,1,18.47-7.41c38.74-11.74,97.44-18.79,113.87-41.09s79.83-11.74,82.18-28.17c2.3-16.19-39.52-38-40.79-38.6l0,0c17.45,3.24,33.85,14.55,46.79,32.43A116.56,116.56,0,0,1,846.86,785a.09.09,0,0,0,0,0C851.47,801.12,849,825.7,839.1,832.09Z"/><path class="cls-6" d="M614.05,844.42c-.88-.64-1.92-1-3.58.68-6.86,6.85-1.38,20.06-.71,21.59a3.83,3.83,0,0,0,3.45,1.37,7.52,7.52,0,0,0,6-4.4C621.12,859.94,618.22,847.42,614.05,844.42Z"/><path class="cls-7" d="M541.36,738.66v.91c1.39.54,5.46,1.29,11.71,1.29s10.3-.75,11.69-1.29v-.91a62.22,62.22,0,0,1-23.4,0Z"/><path class="cls-1" d="M398.07,724.46a75.13,75.13,0,0,1-47.56,4.59,1.38,1.38,0,0,1-.39.18c-.18.06-18,6.12-22.27,16.11-4.07,9.49-11.25,36.78-12.87,43l3,3.47,15.35-36.49c.51-1.61,4.82-13.34,20.94-11.73,15.41,1.53,70.44,0,71,0,.32,0,9.48-.52,13.74,5.54.26.37.55.81.87,1.3,3.94,6.11,14.42,22.32,65.87,22.37s61.93-16.26,65.87-22.37c.32-.49.61-.93.87-1.3,4.26-6.06,13.42-5.57,13.81-5.54s55.52,1.54,70.93,0c16.1-1.62,20.43,10.12,20.94,11.73L693,790.67a88.52,88.52,0,0,0,12.67-14.51c3.13-4.68,4.66-8.63,4.18-10.84-2.45-11.46-21.86-26.71-28.24-31.72-5.89-4.63-12.9-4.55-24.52-4.42a234.08,234.08,0,0,1-32.39-1.42c-7.36-.88-13.41-3.33-18.05-7.3H563.12c-.6.26-1.21.5-1.83.71v10.12c5.2.66,7.47,1.89,7.47,4v5.09c0,3-5.28,4.48-15.69,4.48s-15.71-1.51-15.71-4.48v-5.09c0-2.07,2.17-3.29,7.15-3.95V721.17c-.62-.21-1.23-.45-1.83-.71H480.13c-.6.26-1.21.5-1.83.71v10.14c5.09.67,7.3,1.89,7.3,4v5.09c0,3-5.28,4.48-15.69,4.48s-15.7-1.51-15.7-4.48v-5.09c0-2.09,2.22-3.31,7.31-4V721.17c-.62-.21-1.23-.45-1.83-.71H405.87A61,61,0,0,1,398.07,724.46Z"/><path class="cls-7" d="M458.21,738.66v.91c1.39.54,5.46,1.29,11.7,1.29s10.31-.75,11.69-1.29v-.91a62.16,62.16,0,0,1-23.39,0Z"/><path class="cls-1" d="M574.9,696.55a22.05,22.05,0,0,1-16.14,21.21l-1.47.41v14.47h-8.68a1.6,1.6,0,0,0-.1-.31V718.17l-1.47-.41a22.05,22.05,0,0,1-16.14-21.21c0-.14,0-.28,0-.41a22,22,0,0,1,42.89-6.44A21.6,21.6,0,0,1,574.9,696.55Z"/><path class="cls-1" d="M491.91,696.55c0,.31,0,.62,0,.92h0a22.06,22.06,0,0,1-16.12,20.28l-1.47.41v14.47h-8.78V718.17l-1.47-.41a22.05,22.05,0,0,1-16.14-21.21,21.67,21.67,0,0,1,.79-5.84,22,22,0,0,1,43.21,5.84Z"/><path class="cls-5" d="M562.4,581.81a5.83,5.83,0,0,0,3.44-5.52c0-3.21-2.27-5.82-5.05-5.82s-5,2.61-5,5.82a6,6,0,0,0,2.67,5.14c.17-2.41.39-3.82.4-3.9a2,2,0,0,1,3.95.65C562.75,578.25,562.55,579.57,562.4,581.81Z"/><path class="cls-15" d="M361.92,814.41l2.78.93,3.36,1.11,2.68.87,3.32,1.06,2.57.82,3.3,1,2.43.75,3.34,1,2.22.66,3.54,1,1.86.53c1.76.5,3.5,1,5.21,1.43,1,.26,2,.55,2.92.85l.92.31c.64.21,1.28.43,1.91.66l1.08.42c.56.22,1.11.44,1.65.67l1.11.49.87.38a3.73,3.73,0,0,0,.84-2.37V812.38a3.74,3.74,0,0,0-3.74-3.74H356.53a3.76,3.76,0,0,0-3.59,2.69l2.68.93,2.88,1Z"/><rect class="cls-16" x="611.05" y="761.68" width="57.04" height="22.09" rx="3.74"/><path class="cls-7" d="M429.5,862.25c.14,4.63-1.22,8.35-3.55,9.7-3,1.78-8.06,2.37-13.3,2.37,1.89-2.61.06-8.1-3.18-17.08-1-2.72-1.91-5.28-2.49-7.32a11.43,11.43,0,0,0-3.69-5.68,12.65,12.65,0,0,0-6.63-2.9,9.06,9.06,0,0,0-5.09.76,6.52,6.52,0,0,0-2.87,2.7c-3.16,5.68,1.95,22.32,7.2,27a11.48,11.48,0,0,0,1.75,1.27c-1.19-.19-2.23-.37-3.07-.54-3.52-1.17-49.55-16.49-61-19.55-10.73-2.86-25.75-10.54-27.58-11.48l-50.7-42.13a2,2,0,1,0-2.56,3.08L303.6,844.7l.35.23c.68.36,16.77,8.75,28.59,11.9,9.06,2.42,41.12,13,54.74,17.48l-29.63,8.38-22.59,3.89-.23.06c-.1,0-9.92,2.74-29.17-5.41-20.13-8.51-63.76-26.43-64.2-26.61l-.4-.12a15.17,15.17,0,0,1-5.37-2.55c-1.35-2.15-2-2.4-2.75-2.31-3.13-3.11-6.4-8.16-8.29-16.32-.42-1.83-1-3.93-1.53-6.16-4.84-18.83-13-50.46,4-80.79a91.08,91.08,0,0,1,19.58-23.8A202.42,202.42,0,0,1,265.3,708h.09a2,2,0,0,0,1.66-1.19c22.07-14.88,40.93-20,57-21.63h0a2,2,0,0,0,1.17.38,2,2,0,0,0,1.42-.62,201.59,201.59,0,0,1,22.79-.19l3.86.13c22.8.74,37.87,1.24,53.2-4.13,5.44-1.9,9.73,2,11.57,6.76a19.09,19.09,0,0,1,.24,12.59c-1.77,5.71-6.11,11.59-13.69,16.46a2,2,0,0,0-1.12.7,56,56,0,0,1-7.06,3.59l-.14.07c-.32.16-32.32,16.4-66.1-4.62a2,2,0,1,0-2.12,3.39,76.2,76.2,0,0,0,16.14,7.63c-6.13,2.69-16.53,8.29-20.05,16.49-3.79,8.84-9.93,31.65-12.37,40.93L281.34,749.5a2,2,0,0,0-3,2.62l32.44,37.48A2,2,0,0,0,312,791l12,13.91.46.18c.05,0,2.56,1,6.85,2.63s10.33,3.86,17.45,6.38l1.34.47c17.47,6.13,33.4,11.13,47.37,14.85a57.09,57.09,0,0,1,10.92,4.09C423.54,841.12,429.22,853.34,429.5,862.25Z"/><path class="cls-5" d="M447.8,462.45c.63.83,14.84,19.29,45.73,19.29,2,0,4-.08,6.11-.24,35.48-2.68,42.42-29.94,42.49-30.22l.67-2.78-97.09,11.16Zm89.48-9.29c-2.66,6.57-11.75,22.37-37.94,24.36-25.28,1.91-40.19-9.35-45.79-14.73Z"/><path class="cls-5" d="M487.33,446h.16a2,2,0,0,0,.16-4c-1.67-.14-5.38-1-6.2-2.79-.59-1.28.43-3.15,1.4-4.48,7.77-10.76,1.9-28.76,1.84-28.94a2,2,0,0,0-3.79,1.27c.05.16,5.18,16.36-1.29,25.33-2.32,3.2-2.92,6.06-1.79,8.5C479.84,445.3,486.57,446,487.33,446Z"/><path class="cls-5" d="M392.85,434.28c1.77-4.89-2.77-7.19-6.41-9-2.54-1.29-5.16-2.62-6.24-4.59-2.13-3.91,4.93-8.24,5-8.28l1.34-.78-.43-1.5c-.22-.72-5.29-17.78-15.73-16.56a8.6,8.6,0,0,0-6,3.38c-3.8,5-2.57,13.67-2.51,14a2,2,0,0,0,4-.58c-.3-2.05-.57-8,1.73-11a4.61,4.61,0,0,1,3.3-1.83c5.29-.64,9.34,7.68,11,12.3-3.73,2.64-8,7.53-5.12,12.75,1.67,3.07,5,4.76,7.94,6.25,4.08,2.08,4.92,2.85,4.46,4.11a1.09,1.09,0,0,1-.73.74c-2.17.76-7.41-1.49-10.44-3.33a2,2,0,1,0-2.08,3.42c1.26.76,6.92,4.05,11.49,4.05a7.29,7.29,0,0,0,2.36-.36A5.07,5.07,0,0,0,392.85,434.28Z"/><path class="cls-5" d="M625.36,383.46c-.29-.21-7.19-5.18-14.36-3.55-3.93.89-7.11,3.54-9.45,7.87-6.33,11.77,4,18.4,8.41,21.23.64.41,1.39.9,1.8,1.21,0,1.39.09,3.65-1.34,5-1.21,1.13-3.36,1.56-6.39,1.26a2,2,0,0,0-.38,4c.72.07,1.41.1,2.07.1,3.21,0,5.71-.81,7.43-2.43,2.77-2.59,2.66-6.3,2.61-8.08,0-.17,0-.33,0-.45,0-1.62-1.37-2.5-3.63-4-5.88-3.78-11.27-8.12-7-16,1.75-3.27,4-5.24,6.79-5.87,5.34-1.22,11,2.8,11.14,2.88a2,2,0,1,0,2.35-3.23Z"/><path class="cls-5" d="M448.44,383.48c4,0,7.31-1.88,8.41-4.91,1-2.79.89-8.68-11.16-16.81-16.54-11.15-35.32-16.91-41-16-2.48.41-5.76,3.06-6.73,6.61-.78,2.83-.47,7.24,5.38,12.15l.17.15.21.11c3.6,1.82,35.39,17.8,43.36,18.59A11.93,11.93,0,0,0,448.44,383.48Zm-46.58-30a5.67,5.67,0,0,1,3.52-3.72c3.67-.61,21.07,3.87,38.08,15.34,8.3,5.6,10.41,9.94,9.62,12.13-.57,1.58-2.86,2.5-5.57,2.22-6.07-.6-32-13.15-41.73-18.08C403.49,359.39,401,356.48,401.86,353.46Z"/><path class="cls-5" d="M558.41,347.76c-4.53-.84-23.3,10.31-31.14,15.13l-.24.18c-6.28,5.28-8.64,9.11-7.66,12.41.83,2.8,3.93,4.49,9.48,5.19a17.15,17.15,0,0,0,2,.12c12.9,0,27.81-14.31,32.23-19.61,2.14-2.57,2.79-5.47,1.81-8.15A8.43,8.43,0,0,0,558.41,347.76ZM560,358.62c-5.18,6.22-20.1,19.4-30.69,18.08-4.17-.52-5.91-1.56-6.15-2.36-.15-.53-.16-2.67,6.29-8.12,11.64-7.15,25.73-14.69,28.21-14.53a4.52,4.52,0,0,1,3.46,2.7C561.64,355.7,561.25,357.17,560,358.62Z"/><ellipse class="cls-5" cx="436.94" cy="393.94" rx="6.46" ry="6.65"/><ellipse class="cls-5" cx="544.16" cy="388.47" rx="6.46" ry="6.65"/><path class="cls-5" d="M347.29,581.34a2,2,0,0,0-2.14,1.85c0,.38-1.47,19.26-4.8,40.89a195.69,195.69,0,0,0-7-41.84,2,2,0,0,0-3.83,1.15v.08a196.26,196.26,0,0,1,6.18,33.78l3.54,19.3s6.13-28.44,8.9-54.9A1.94,1.94,0,0,0,347.29,581.34Zm-89.52,86.2a2,2,0,0,0,1.34,3.77h0A76.45,76.45,0,0,1,271,664.71,70.07,70.07,0,0,0,257.77,667.54ZM467.66,568a8.18,8.18,0,0,0-3.31.69c1.65,1.22,3.31,2.44,5,3.64a5,5,0,0,1,1.86,1.34q2.76,2,5.51,3.92C476.58,572.31,472.58,568,467.66,568ZM871,763.4c-13.94-36.24-33.17-56.9-46.85-67.85-5-9.54-41.06-78.39-88.7-157.08-27-44.6-57.41-61.5-78.15-67.82-18.44-5.62-32.5-4.18-37.44-3.37a27.75,27.75,0,0,0-2.29-5.44c-8.88-16-22.7-20.58-27.74-21.77a57.8,57.8,0,0,0,2.54-11.58c7,1.28,32,4,43.78-20.37,5.78-11.9,4.81-24.48-2.47-34.22,13.21,1.78,48.68,6.39,59.75,6.39.18,0,17.89-.23,19.3-8.67a7,7,0,0,0-.47-3.72,2.19,2.19,0,0,0-.16-.83c-12.68-29.41-99.3-75-109.39-80.25-5.58-31.3-19.46-55.74-40.74-71.36a108.43,108.43,0,0,0-43.56-19,9.45,9.45,0,0,0-2.26-6.76c-2.8-3.23-8.06-4.87-15.63-4.87-9.11,0-13.1,5.71-14.23,9.48a159.57,159.57,0,0,0-23.94,3.12c-32.87,6.81-57.3,21.53-64.93,29.16-.5.46-12.3,11.6-22.32,30.66-6.92,13.15-13.85,32-13.5,54.49a2,2,0,0,0-.15,2.23,1.73,1.73,0,0,0,.22.31,105.56,105.56,0,0,0,3.1,21.55l13,45c.1.62.17,1.09.22,1.36a2,2,0,0,0,.46,1l.09.28c-2.72-1.82-6.25-3.52-10-3.46a12.62,12.62,0,0,0-9.69,4.87c-11.63,13.57-12.49,29.09-2.56,46.13,4.51,7.72,13,12.88,24.69,15.05a12.69,12.69,0,0,0-.95,4.81c0,6.29,4.52,11.4,10.08,11.4a9.11,9.11,0,0,0,5-1.52,22.14,22.14,0,0,0-5.74,6.65c-2.61,4.6-3.72,10.21-3.37,16.77-8.52-.49-40.94,1.24-73.47,50.38C276.31,589.32,178.35,703,177.36,704.12l-.09.11a156.2,156.2,0,0,0-20.45,41.57c-7.26,22.61-11.94,56.4,7,89,24.57,42.2,56.31,71.81,84.9,79.21a55.39,55.39,0,0,0,13.87,1.86,42.61,42.61,0,0,0,20.64-5.18c6.51.62,12.72.93,18.59.93q7.25,0,13.79-.63c23.86-2.29,38.65-10.59,44-24.68l34.55-9.77c3.54.66,24.51,4.3,33.79-1.11,3.65-2.13,5.72-7.1,5.52-13.29a31.75,31.75,0,0,0-3.3-12.78H587.58c-3.14,5.74-4.1,11.28-2.67,15.89,1.34,4.34,4.66,7.64,9.6,9.54a15.11,15.11,0,0,0,5.39.84A49.73,49.73,0,0,0,613,873.35l8.3,2.26.3.06,6.09.69A26.31,26.31,0,0,0,646.18,889c1.83.3,4.07.77,6.55,1.34a2.06,2.06,0,0,0,0,.26c.14.56,3.56,13.66,17,17.86,12.54,3.92,34.61,7,35.61,7.13.3,0,4,.41,9.12.41a73.23,73.23,0,0,0,18.21-2c11.68-3.11,56.18-18.94,58.07-19.61l.11-.05a46.43,46.43,0,0,0,18-15.49h0c26.62-.7,47.18-10.78,59.45-29.17C882.81,828,883.77,796.59,871,763.4ZM588.57,425.66a2,2,0,0,0,0,.88,3.32,3.32,0,0,0-.13.7c-.92,13.13-10.39,34.28-26.61,52a2,2,0,0,0-1.13,1.21,113.34,113.34,0,0,1-8.5,8.16c-12.79,11-33.73,23.68-60.93,21.54-28-2.21-47.45-13.21-60.45-24.7a2,2,0,0,0-1.14-1,96.48,96.48,0,0,1-8.87-9.23c-13.15-15.62-17.74-30.78-17.78-30.94l-.48-1.62-.23,0c-6-13.58-16.26-47.83-17.86-53.24l-2.75-9.49c-1.25-8.54-2.82-27.18,2.07-32.34,7-7.4,2.95-35.14,1.87-41.72A229,229,0,0,1,425,297.13c33.14-4.5,85.84-5,155.12,15.3.54,4.68,2.4,21.87,1.43,28l0,.34.06.33c0,.21,1,5.07,6.17,9.4,3.52,2.94,9.89,12.41,8.9,24.11,0,.15,0,.3-.05.46-.07.7-.16,1.4-.28,2.11a1.82,1.82,0,0,0,0,.57C594.05,396.88,588.64,425.29,588.57,425.66ZM418,499.25h.37c1.66,0,8.42-.26,11.61-4.46a7.84,7.84,0,0,0,1.5-3.56C445,502.13,464.25,512,491,514.12q3.25.25,6.39.25c25.46,0,45.12-12.12,57.47-22.75,2.15-1.86,4.22-3.79,6.21-5.77.71,3.75,2.34,6.54,4.88,8.28a12.3,12.3,0,0,0,7,2,19.76,19.76,0,0,0,6.57-1.17,2,2,0,1,0-1.44-3.73c-.06,0-6.05,2.26-9.89-.39-2.19-1.51-3.37-4.45-3.53-8.73a124.52,124.52,0,0,0,10.05-12.48,8.94,8.94,0,0,1,5.16,3.25c2.9,3.67,3.66,10,2.18,18.3-3.72,20.9-57.45,80.07-66.14,89.53C504.84,572.92,433,522,417.41,499.12A2.07,2.07,0,0,0,418,499.25Zm-1.92-2.12c-6.93-10.94-7.08-16.91-5.9-20a6.67,6.67,0,0,1,3.95-3.93c1.1,1.46,2.26,2.94,3.52,4.44a103.27,103.27,0,0,0,9.7,10.07c.5,2,.31,3.52-.56,4.67-1.91,2.53-6.89,2.94-8.64,2.88A2,2,0,0,0,416.1,497.13ZM399.66,447h.08a85.77,85.77,0,0,0,4.08,9.54,24,24,0,0,0-7.71,3.52,11.89,11.89,0,0,0,4.16-9.2A12.58,12.58,0,0,0,399.66,447ZM515.17,282.2a57.31,57.31,0,0,1,.14,12,357.77,357.77,0,0,0-65.46-3.32A54.24,54.24,0,0,1,452.22,277C459.08,276,494.25,271.58,515.17,282.2Zm-61.38-9.43a33,33,0,0,1,7-10.51c6-5.88,14.22-8.66,24.52-8.23,10.06.41,17.75,3.77,22.85,10a32.16,32.16,0,0,1,6.17,13.35C493.8,268.47,463.89,271.42,453.79,272.77ZM632.56,406.38C622,428.11,600.2,426,592.85,424.51c1.32-7.05,5.82-31.61,7.59-48.3.06-.48.11-.95.14-1.42.35-3.54.57-6.67.58-9.12,9.53-2.77,20.49.58,27.68,8.6C636.69,383,638.08,395,632.56,406.38Zm66.13-51.09c-2.05-1.27-4.31-2.58-6.82-4-17.62-9.56-46.69-21.33-86.39-35-.05-2.88-.15-5.83-.33-8.82-.32-5.43-.87-10.68-1.62-15.77C618.1,299.49,674.5,330.22,698.69,355.29ZM605.51,320.6c97.91,33.77,103.83,47.07,103.28,50.37-.58,3.49-10.3,5.32-15.35,5.32-12.68,0-60.14-6.47-63.92-7-7.68-7.05-18.19-10.05-27.76-7.93A232.23,232.23,0,0,0,605.51,320.6ZM598.12,359a30.57,30.57,0,0,0-7.87-11.63,14.17,14.17,0,0,1-4.73-6.77c.84-6.29-.58-20.71-1.27-26.95q8.47,2.56,17.26,5.54A229.84,229.84,0,0,1,598.12,359ZM500.53,188.81c6.27,0,10.64,1.21,12.61,3.49a5.32,5.32,0,0,1,1.28,3.43,130.47,130.47,0,0,0-23.76-1.61C491.71,192,494.32,188.81,500.53,188.81ZM378.58,259.22a122.06,122.06,0,0,1,21.63-29.77c7.89-7.9,32.65-21.85,63-28.12,25.91-5.37,63.66-6.71,96.44,17.35,31.28,23,39.86,61.08,41.54,89,.15,2.48.24,4.92.3,7.32a476.4,476.4,0,0,0-82.17-20.19c.56-5.23,1.43-21.73-8-33.29-5.85-7.17-14.53-11-25.8-11.49-11.44-.46-20.7,2.7-27.51,9.4-11,10.78-12,27.22-12.13,31.69-7.95.47-15.2,1.2-21.69,2.09-31.52,4.31-51.09,12.57-58.56,16.22C365.73,288.83,372.17,271.45,378.58,259.22Zm-2.11,102.55-7.83-27a101.59,101.59,0,0,1-3-20.89,127.13,127.13,0,0,1,16.18-6.73c2.06,12.8,3.49,33-.93,37.68C377.71,348.2,376.63,354.93,376.47,361.77Zm7,80.58c-8.16-1.27-18.51-4.64-23.63-13.42-9.11-15.62-8.41-29.2,2.14-41.51a8.68,8.68,0,0,1,6.68-3.47c5.38-.07,10.65,5,11.93,6.32,1.31,4.42,11.23,37.81,17.59,52.77l-.6,0a9.24,9.24,0,0,0-14.11-.72Zm6.73,15.86c-3.35,0-6.08-3.32-6.08-7.4s2.73-7.39,6.08-7.39,6.09,3.32,6.09,7.39S393.54,458.21,390.18,458.21ZM264,911.81a2.09,2.09,0,0,0-1-.21c-.17,0-18.17.61-33.58-30.2-14.3-28.6-36.22-82.57-22.33-122.63,10.48-30.24,33.59-43.72,48.35-48.59q-5.58,4.27-11.39,9.39c-43,37.9-30.73,85.64-24.84,108.58.59,2.3,1.11,4.29,1.52,6.07,2.56,11.1,7.57,17.16,11.89,20.45,1,1.8,3.07,5.74,7,14.37,3.14,6.85,6.34,11.65,9.56,14.38,3.67,6,15.87,25.07,22.53,25.9l1.1.14,2.52.33A39.4,39.4,0,0,1,264,911.81Zm21.26-5a2,2,0,0,0-2.53-.42l-.29.16c-3.36-.33-6.42-.7-9-1.06l-1.14-.15c-2.81-.35-10.21-9.57-16.63-19.31a4.78,4.78,0,0,0,.61-.08c3.86,1.53,24.68,9.73,40.21,14.67A145.56,145.56,0,0,0,322.73,906C310.15,908.09,296.35,907.76,285.26,906.82ZM334.77,903h-.08c-.2,0-20.27-.83-37-6.17-17-5.39-40.33-14.73-40.56-14.82l-.76-.54-.82.57c-.58.07-5.4.2-12.21-14.66-1.79-3.88-3.21-6.93-4.38-9.32.53.18.94.28,1.19.34,3,1.24,44.52,18.29,64,26.53,12,5.08,20.66,6.19,25.89,6.19a23.84,23.84,0,0,0,5.85-.6l19-3.28C351,895,343.67,899.92,334.77,903Zm63.79-34.2c-4.2-3.73-8.42-18.36-6.37-22.06a3.48,3.48,0,0,1,3.21-1.48,7.65,7.65,0,0,1,.81,0,8.18,8.18,0,0,1,6.92,5.71c.62,2.17,1.57,4.79,2.57,7.58,1.37,3.78,3.81,10.53,3.75,12.91C407.11,871.61,401.62,871.53,398.56,868.8ZM426,872c-3,1.78-8.06,2.37-13.3,2.37,1.89-2.61.06-8.1-3.18-17.08-1-2.72-1.91-5.28-2.49-7.32a12.21,12.21,0,0,0-10.32-8.58c-3.56-.41-6.53.88-8,3.46-3.16,5.68,1.95,22.32,7.2,27a11.48,11.48,0,0,0,1.75,1.27c-1.19-.19-2.23-.37-3.07-.54-3.52-1.17-49.55-16.49-61-19.55-10.73-2.86-25.75-10.54-27.58-11.48l-50.7-42.13a2,2,0,1,0-2.56,3.08L303.6,844.7l.35.23c.68.36,16.77,8.75,28.59,11.9,9.06,2.42,41.12,13,54.74,17.48l-29.63,8.38-22.59,3.89-.23.06c-.1,0-9.92,2.74-29.17-5.41-20.13-8.51-63.76-26.43-64.2-26.61l-.4-.12a15.17,15.17,0,0,1-5.37-2.55c-1.35-2.15-2-2.4-2.75-2.31-3.13-3.11-6.4-8.16-8.29-16.32-.42-1.83-1-3.93-1.53-6.16-6.14-23.87-17.56-68.31,23.6-104.59A202.42,202.42,0,0,1,265.3,708h.09a2,2,0,0,0,1.66-1.19c19.89-13.41,37.18-18.92,52.16-21,1.64-.23,3.26-.42,4.84-.58h0a2,2,0,0,0,1.17.38,2,2,0,0,0,1.42-.62,201.59,201.59,0,0,1,22.79-.19l2.91.1.95,0c22.8.74,37.87,1.24,53.2-4.13,5.44-1.9,9.73,2,11.57,6.76,3.28,8.48.07,20.35-13.45,29a2,2,0,0,0-1.12.7,56,56,0,0,1-7.06,3.59l-.14.07c-.29.15-27.34,13.87-57.94-.22a74.28,74.28,0,0,1-8.16-4.4,2,2,0,1,0-2.12,3.39,76.65,76.65,0,0,0,7.61,4.17,73.38,73.38,0,0,0,8.53,3.46c-6.13,2.69-16.53,8.29-20.05,16.49-3.79,8.84-9.93,31.65-12.37,40.93L281.34,749.5a2,2,0,0,0-3,2.62l32.44,37.48A2,2,0,0,0,312,791l12,13.91.46.18c.1,0,10.06,4,24.3,9l1.34.47c17.47,6.13,33.4,11.13,47.37,14.85a57.09,57.09,0,0,1,10.92,4.09,40.56,40.56,0,0,1,16.11,13.87,29.29,29.29,0,0,1,5,14.85C429.64,866.88,428.28,870.6,426,872ZM474.3,718.17v14.47h-8.78V718.17l-1.47-.41a22,22,0,1,1,11.72,0Zm7.3,20.49v.91c-1.38.54-5.45,1.29-11.69,1.29s-10.31-.75-11.7-1.29v-.91a62.16,62.16,0,0,0,23.39,0Zm-21.91-18.2c.6.26,1.21.5,1.83.71v10.14c-5.09.67-7.31,1.89-7.31,4v5.09c0,3,5.28,4.48,15.7,4.48s15.69-1.51,15.69-4.48v-5.09c0-2.09-2.21-3.31-7.3-4V721.17c.62-.21,1.23-.45,1.83-.71h62.55c.6.26,1.21.5,1.83.71v10.17c-5,.66-7.15,1.88-7.15,3.95v5.09c0,3,5.29,4.48,15.7,4.48s15.69-1.51,15.69-4.48v-5.09c0-2.11-2.26-3.34-7.46-4V721.17c.62-.21,1.23-.45,1.83-.71h43.55c4.65,4,10.7,6.42,18.06,7.3a234.08,234.08,0,0,0,32.39,1.42c11.62-.13,18.63-.21,24.52,4.42,6.38,5,25.78,20.26,28.24,31.72.47,2.21-1,6.16-4.18,10.84A88.52,88.52,0,0,1,693,790.67l-14.86-35.33c-.51-1.61-4.84-13.35-20.94-11.73-15.42,1.53-70.45,0-70.93,0s-9.55-.52-13.81,5.54c-.26.37-.55.81-.87,1.3-3.94,6.11-14.42,22.32-65.87,22.37s-61.93-16.26-65.88-22.37c-.31-.49-.6-.93-.86-1.3-4.26-6.06-13.42-5.57-13.74-5.54-.56,0-55.59,1.54-71,0-16.12-1.61-20.43,10.12-20.94,11.73L318,791.83l-3-3.47c1.62-6.24,8.8-33.53,12.87-43,4.28-10,22.09-16.05,22.27-16.11a1.38,1.38,0,0,0,.39-.18,75.13,75.13,0,0,0,47.56-4.59,60.22,60.22,0,0,0,7.79-4Zm97.6-2.29v14.47h-8.68a1.6,1.6,0,0,0-.1-.31V718.17l-1.47-.41a22,22,0,1,1,11.72,0Zm7.46,20.49v.91c-1.38.54-5.44,1.29-11.69,1.29s-10.31-.75-11.7-1.29v-.91a62.16,62.16,0,0,0,23.39,0ZM352.94,811.33a3.75,3.75,0,0,1,3.59-2.69h49.56a3.75,3.75,0,0,1,3.74,3.74V827a3.73,3.73,0,0,1-.84,2.37l-.87-.38-1.11-.49c-.54-.23-1.1-.45-1.65-.67l-1.08-.42c-.63-.23-1.27-.45-1.91-.66l-.92-.31c-1-.3-1.93-.59-2.92-.85-1.71-.46-3.45-.93-5.22-1.43l-1.85-.53-3.54-1-2.23-.66-3.33-1-2.43-.75c-1.1-.33-2.19-.66-3.3-1l-2.57-.82-3.32-1.06-2.68-.87-3.36-1.11-2.79-.93-3.41-1.16-2.88-1Zm75,34a43.45,43.45,0,0,0-15.38-14.12,7.73,7.73,0,0,0,1.27-4.23V812.38a7.75,7.75,0,0,0-7.74-7.74H356.53a7.74,7.74,0,0,0-7.36,5.37c-12-4.24-20.72-7.64-22.76-8.44l-5.51-6.37,16.15-38.39.09-.27c.11-.42,2.88-10.34,16.73-8.95,15.67,1.55,69.24.07,71.58,0,.07,0,7.35-.33,10.29,3.85.23.34.49.73.78,1.18,4.26,6.59,15.56,24.08,69,24.19H506c26.7,0,42.88-4.45,52.92-9.67s13.92-11.23,16.05-14.53c.29-.44.54-.83.78-1.17,3-4.22,10.22-3.85,10.36-3.84,2.27.06,55.84,1.55,71.51,0,13.72-1.37,16.61,8.54,16.72,8.95l15.54,37c-6.8,5.92-14.22,10.91-20.4,13.09a7.62,7.62,0,0,0-5.13-2H614.79a7.75,7.75,0,0,0-7.74,7.74V827a7.72,7.72,0,0,0,1.09,4c-7.95,4.72-14.51,9.67-18,14.4Zm233.29-36.7c-12.45,3.22-33.24,11.16-49.61,20.29a3.76,3.76,0,0,1-.57-1.94V812.38a3.75,3.75,0,0,1,3.74-3.74Zm-42,55a7.52,7.52,0,0,1-6,4.4,3.83,3.83,0,0,1-3.45-1.37c-.67-1.53-6.15-14.74.71-21.59,1.66-1.67,2.7-1.32,3.57-.68C618.22,847.42,621.12,859.94,619.26,863.66ZM811,865.77l-.08.24a43.46,43.46,0,0,1-21.54,24.6c-2.06.73-46.37,16.47-57.68,19.49s-25.74,1.52-25.82,1.51c-.23,0-22.68-3.15-34.9-7-8.64-2.7-12.37-9.82-13.7-13.2,14.41,3.61,33.3,9.43,33.55,9.51l.13,0a61.24,61.24,0,0,0,12.89,1.32A53,53,0,0,0,715.89,901c12.84-3,50.91-15,61.4-20.67a43.13,43.13,0,0,1,18.28-5.41,2,2,0,0,0,0-4c-.38,0-9.44.07-20.18,5.89-9.88,5.36-47.66,17.3-60.42,20.3-11,2.58-22.15.22-23.07,0-2.11-.65-32.44-10-45.06-12a22.18,22.18,0,0,1-13.9-8.13c14.87,1.63,39.9,4.23,47.59,4.23,14.62,0,25.28-.25,29.42-3.57,1.37-1.09,14.08-10.82,40.67-16.83,25.13-5.67,32.49-30.09,32.79-31.13a2,2,0,1,0-3.84-1.11c-.07.23-7,23.18-29.83,28.34-26.89,6.08-39.94,15.74-42.28,17.61-3.37,2.69-17.55,2.69-26.93,2.69-8,0-36.71-3-50.69-4.59a2,2,0,0,0-1.51-.17c-3.29-.36-5.53-.62-6.12-.69l-2.29-.62c6.62-2.4,12.12-5,13.61-5.72l71.86-22.65.14-.05c1-.39,24.05-9.68,30.56-17.82,6-7.54,16-15.24,16.1-15.32a2,2,0,0,0-2.44-3.17c-.43.32-10.44,8.06-16.78,16-5.7,7.12-27.47,16-28.85,16.58L632.19,861.6l-.27.11c-2.16,1-5.46,2.52-9.24,4,.05-.1.11-.18.16-.28,2.68-5.35-.56-20-6.46-24.28-2.82-2-6-1.63-8.74,1.1-9.23,9.23-1.77,25.57-1.44,26.26l.15.26a6.88,6.88,0,0,0,1.64,1.72c-4.89,1.14-9.31,1.57-12,.52-3.75-1.44-6.24-3.86-7.21-7-1.28-4.12,0-9.45,3.72-15.06a2,2,0,0,0,.79-1.14c3.34-4.59,10.26-9.65,18.73-14.51a1.92,1.92,0,0,0,.44-.25c17.82-10.15,42.2-19.39,54.39-21.6a25.2,25.2,0,0,0,2.6-.64h0c7-2.1,15.37-7.59,23-14.21l.11,0a2,2,0,0,0,2-1.89A94.17,94.17,0,0,0,709,778.38c3.89-5.81,5.49-10.49,4.76-13.9-2.47-11.54-18.12-24.94-29.68-34-7-5.5-15-5.42-27-5.28a229,229,0,0,1-31.88-1.4c-6.72-.8-12.16-3-16.25-6.68a1.42,1.42,0,0,0-.13-.12,23.37,23.37,0,0,1-3.12-3.39c-7.42-10-5.74-24.1-5.42-26.31,2.68-4.67,13.13-5.51,24.05-1.87,1.62.54,3.15,1.09,4.65,1.63,9.59,3.49,17.88,6.5,38.64,2.34,19.92-4,32.42-2.23,39.89-1.19,1.23.17,2.34.33,3.32.44,2.79.31,8.68,3.8,16.14,8.23,9.26,5.49,21.93,13,36.54,19,25.68,10.58,44.26,40.38,44.45,40.68a2,2,0,1,0,3.4-2.1,134.53,134.53,0,0,0-26.08-29.74c17.45,3.24,33.85,14.55,46.79,32.43A116.56,116.56,0,0,1,846.86,785a.09.09,0,0,0,0,0c4.6,16.1,2.16,40.68-7.77,47.07-5.66,3.64-12.59,11.89-18.13,19.29a2,2,0,0,0-1.56,2.1c-4.63,6.34-8,11.61-8.31,12.09Zm41.5-54.22a33.85,33.85,0,0,1-.92,9.19A42.37,42.37,0,0,1,828,848.84c4.45-5.55,9.27-10.82,13.27-13.39C847.71,831.31,851.2,821.87,852.47,811.55Zm12.58,35.87c-11.11,16.65-29.62,26-53.59,27.27a46.26,46.26,0,0,0,3.15-7.18c.7-1.09,4.21-6.48,8.75-12.63,5.75-1.69,25.72-9.18,32.06-33.12,4.33-16.34-4.32-45.12-20.11-67C820,733.7,800,721.32,779,719.9A73.72,73.72,0,0,0,765,712.18c-14.33-5.9-26.87-13.33-36-18.76-4.09-2.43-7.51-4.45-10.36-5.95,9.29-8.56,16.36-14.93,16.44-15a2,2,0,0,0-2.68-3c-.08.07-7.77,7-17.67,16.13a13.51,13.51,0,0,0-3.47-1c-.95-.1-2-.25-3.21-.42-1.74-.24-3.76-.52-6.06-.76-1.59-11.86-6.6-31.7-12.22-51.63,4.89-25.36-6.82-66.1-7.33-67.85a2,2,0,0,0-3.84,1.12c.11.37,9.28,32.31,8.27,56.6-7.91-27.14-16.08-51.88-17.21-53.57a2,2,0,0,0-3.37,2.15c1.2,2.34,10.92,31.8,19.38,61.62l-.06.3a2,2,0,0,0,.71,2c5.24,18.6,9.89,37.07,11.59,48.92a116.49,116.49,0,0,0-31.09,2.34c-19.65,3.93-27.46,1.1-36.49-2.18-1.53-.55-3.09-1.12-4.74-1.67a53.25,53.25,0,0,0-7-1.82c.5-3.88-1.83-14.5-30-35.45C564.81,626.64,562,599.29,562.23,586a9.63,9.63,0,0,0,7.61-9.69c0-5.42-4.06-9.82-9.05-9.82s-9,4.4-9,9.82a9.75,9.75,0,0,0,6.49,9.42c-.23,14,2.68,43,28,61.84,27.52,20.48,28.49,29.84,28.35,31.7-8.66-.76-15.5,1.51-18,6.5l-.13.25-.05.29c-.13.71-3,17.45,6.09,29.67.12.17.26.33.39.5H569.59a26,26,0,1,0-33.38,0H486.6a26,26,0,1,0-33.38,0H411.46c10.5-8.74,13.35-19.6,11.05-28.24a1.14,1.14,0,0,0,.1-.19c.12-.38,12.53-38.51,34.28-50.51,12.08-6.66,20-16.32,22.26-27.2,1.7-8.12.3-16.7-4-25.22l-.5-1a10.25,10.25,0,0,0,2.09-6.27v-.24c-.12-5.31-4.12-9.59-9-9.59a8.18,8.18,0,0,0-3.31.69,9.72,9.72,0,0,0-5.59,7.38,11.3,11.3,0,0,0-.14,1.76c0,5.42,4.05,9.82,9,9.82a8.37,8.37,0,0,0,3.81-.92c4,7.75,5.28,15.48,3.76,22.74-2.06,9.86-9.07,18.34-20.27,24.52-19,10.51-30.88,38.38-34.76,48.81-3.45-5.51-9.25-7.93-15-5.9-14.62,5.11-29.38,4.63-51.74,3.9l-.47,0-3.39-.11c-6.17-.2-12.9-.41-20.24,0,3.44-6.28,6.35-14.91,8.79-24.47a1.86,1.86,0,0,0,.55-1c.23-1.23.43-2.46.61-3.69,7-29.77,9.69-65.82,9.85-68a2,2,0,0,0-.92-1.83,1.94,1.94,0,0,0-.92-.31,2,2,0,0,0-2.14,1.85c0,.38-1.47,19.26-4.8,40.89a195.69,195.69,0,0,0-7-41.84,2,2,0,0,0-3.83,1.15v.08a196.26,196.26,0,0,1,6.18,33.78,142.42,142.42,0,0,1-.41,33.33c-2.88,12.42-6.47,23.61-10.87,30.46-1.07.09-2.15.21-3.24.34C305.92,663.94,284.6,663,271,664.71a70.07,70.07,0,0,0-13.22,2.83,2,2,0,0,0,1.34,3.77h0c.63-.21,34.94-11.95,57.3,10.75l-.6.1c-15,2.49-32.26,8.43-52,21.93-13.3,1.65-46.78,13.78-60.51,53.38C189,798.9,211.29,854,225.87,883.19c6.69,13.38,13.94,21.24,20.25,25.86-26.63-8.63-55.82-36.79-78.82-76.29-18.2-31.26-13.69-63.81-6.71-85.62a155.48,155.48,0,0,1,19.86-40.47c2.76-3.21,99.4-115.45,135.49-170,32.11-48.51,64.36-48.94,70.52-48.54q1.43,10.56,7.37,24a2,2,0,0,0,1.83,1.19,2,2,0,0,0,.81-.18,2,2,0,0,0,1-2.64c-8-18-9.61-32.26-4.61-41.15a19,19,0,0,1,12.86-9.21,107.41,107.41,0,0,0,6,9.72,10.63,10.63,0,0,0-5.25,5.72c-2.36,6,.11,14.55,7.32,25.37C430.54,526,511.6,582.58,515,585l1.42,1,1.19-1.27c2.61-2.81,64.1-69.05,68.33-92.84,1.72-9.67.69-16.93-3.07-21.58a13.05,13.05,0,0,0-5.85-4.15,113.34,113.34,0,0,0,11.45-22.24,40.11,40.11,0,0,1,25.58,19.9c11.62,20.91-13.1,50.65-13.35,50.95a2,2,0,0,0,.24,2.82,2,2,0,0,0,1.29.47,2,2,0,0,0,1.53-.71c1-1.13,20.5-24.66,17-46.12,4.79-.73,18.27-2,35.59,3.35,20,6.16,49.37,22.6,75.65,66,41,67.71,73.43,128.12,84.78,149.62a62.92,62.92,0,0,0-9.51-5.37,2,2,0,1,0-1.56,3.68c.16.07,6.45,2.83,15.4,10l0,.07a2,2,0,0,0,1.31,1c13.22,10.88,31.57,31,44.77,65.31C879.56,796.8,878.76,826.9,865.05,847.42ZM561.11,575.88a2,2,0,0,0-2.29,1.65c0,.08-.23,1.49-.4,3.9a6,6,0,0,1-2.67-5.14c0-3.21,2.26-5.82,5-5.82s5.05,2.61,5.05,5.82a5.83,5.83,0,0,1-3.44,5.52c.15-2.24.35-3.56.37-3.63A2,2,0,0,0,561.11,575.88Zm-91.61,7.4a4.41,4.41,0,0,1-1.84.4c-2.61,0-4.76-2.29-5-5.23a5.68,5.68,0,0,1,0-.59c0-3.22,2.26-5.83,5-5.83a4.44,4.44,0,0,1,1.67.33,5,5,0,0,1,1.86,1.34,6.28,6.28,0,0,1,1.51,4.16,6.72,6.72,0,0,1-.41,2.31q-1.4-2.16-3-4.31a2,2,0,0,0-3.18,2.43c.88,1.15,1.7,2.3,2.45,3.45C468.86,582.25,469.19,582.77,469.5,583.28ZM257.77,667.54a2,2,0,0,0,1.34,3.77h0A76.45,76.45,0,0,1,271,664.71,70.07,70.07,0,0,0,257.77,667.54Zm89.52-86.2a2,2,0,0,0-2.14,1.85c0,.38-1.47,19.26-4.8,40.89a195.69,195.69,0,0,0-7-41.84,2,2,0,0,0-3.83,1.15v.08a196.26,196.26,0,0,1,6.18,33.78l3.54,19.3s6.13-28.44,8.9-54.9A1.94,1.94,0,0,0,347.29,581.34Z"/><path class="cls-5" d="M406.1,757.68H356.53a7.75,7.75,0,0,0-7.74,7.74V780a7.75,7.75,0,0,0,7.74,7.74H406.1a7.75,7.75,0,0,0,7.74-7.74V765.42A7.76,7.76,0,0,0,406.1,757.68ZM409.84,780a3.75,3.75,0,0,1-3.74,3.74H356.53a3.75,3.75,0,0,1-3.74-3.74V765.42a3.75,3.75,0,0,1,3.74-3.74H406.1a3.75,3.75,0,0,1,3.74,3.74Z"/><path class="cls-5" d="M614.79,787.77h49.57A7.75,7.75,0,0,0,672.1,780V765.42a7.75,7.75,0,0,0-7.74-7.74H614.79a7.75,7.75,0,0,0-7.74,7.74V780A7.75,7.75,0,0,0,614.79,787.77Zm-3.74-22.35a3.75,3.75,0,0,1,3.74-3.74h49.57a3.75,3.75,0,0,1,3.74,3.74V780a3.75,3.75,0,0,1-3.74,3.74H614.79a3.75,3.75,0,0,1-3.74-3.74Z"/><path class="cls-5" d="M870.14,838a59.23,59.23,0,0,1-5.09,9.38c-11.11,16.65-29.62,26-53.59,27.27a46.26,46.26,0,0,0,3.15-7.18c.7-1.09,4.21-6.48,8.75-12.63,5.75-1.69,25.72-9.18,32.06-33.12,4.33-16.34-4.32-45.12-20.11-67C820,733.7,800,721.32,779,719.9c-2.08-1.45-4.24-2.82-6.48-4.08,4.67-2.16,17.38-5,43.71,7.6C848.65,738.93,885.16,789.53,870.14,838Z"/><path class="cls-5" d="M415,498.29s15.39-.26,14.08-10.17l-15.13-17S399.84,474.81,415,498.29Z"/><path class="cls-5" d="M562.62,482.64s.26,19,19.3,10.43c0,0,2.35-1.56,2.61-8.6s-5.22-15.66-8.87-17Z"/><path class="cls-8" d="M482.92,485.9s18.79,3.91,37.18-6.26c0,0-.39,9.78-12.13,14.48S484.88,493.73,482.92,485.9Z"/><path class="cls-14" d="M246.12,909.05c-26.63-8.63-55.82-36.79-78.82-76.29-18.2-31.26-13.69-63.81-6.71-85.62a160.88,160.88,0,0,1,16.82-35.93C176,741.54,198.2,741.94,212,739.3a87.43,87.43,0,0,0-8.69,18.16C189,798.9,211.29,854,225.87,883.19,232.56,896.57,239.81,904.43,246.12,909.05Z"/><path class="cls-8" d="M395.9,871.79a11.48,11.48,0,0,0,1.75,1.27c-1.19-.19-2.23-.37-3.07-.54-3.52-1.17-49.55-16.49-61-19.55-10.73-2.86-25.75-10.54-27.58-11.48l-50.7-42.13a2,2,0,1,0-2.56,3.08L303.6,844.7l.35.23c.68.36,16.77,8.75,28.59,11.9,9.06,2.42,41.12,13,54.74,17.48l-29.63,8.38-22.59,3.89-.23.06c-.1,0-9.92,2.74-29.17-5.41-20.13-8.51-63.76-26.43-64.2-26.61l-.4-.12a15.17,15.17,0,0,1-5.37-2.55c-1.35-2.15-2-2.4-2.75-2.31-3.13-3.11-6.4-8.16-8.29-16.32-.42-1.83-1-3.93-1.53-6.16-4.84-18.83-13-50.46,4-80.79,6,5.74,61.62,59.17,80.87,72,14.56,9.7,59.28,19.14,83.56,23.72a6.52,6.52,0,0,0-2.87,2.7C385.54,850.48,390.65,867.12,395.9,871.79Z"/><path class="cls-8" d="M426,872c-3,1.78-8.06,2.37-13.3,2.37,1.89-2.61.06-8.1-3.18-17.08-1-2.72-1.91-5.28-2.49-7.32a11.43,11.43,0,0,0-3.69-5.68c2.78.49,4.37.75,4.37.75S428.06,841.52,426,872Z"/><path class="cls-8" d="M418.31,700.05c-1.77,5.71-6.11,11.59-13.69,16.46a2,2,0,0,0-1.12.7,56,56,0,0,1-7.06,3.59l-.14.07c-.32.16-32.32,16.4-66.1-4.62a2,2,0,1,0-2.12,3.39,76.2,76.2,0,0,0,16.14,7.63c-6.13,2.69-16.53,8.29-20.05,16.49-3.79,8.84-9.93,31.65-12.37,40.93L281.34,749.5s16.5-34.69,43.1-37C324.44,712.47,385.67,727.14,418.31,700.05Z"/><path class="cls-9" d="M491.89,697.48a22.06,22.06,0,0,1-16.12,20.28l-1.47.41v14.47h-8.78V718.17l-1.47-.41a22.05,22.05,0,0,1-16.14-21.21,21.67,21.67,0,0,1,.79-5.84c1.92,5.39,7.3,16.91,18.44,18.1C479,710.09,487.47,708.94,491.89,697.48Z"/><path class="cls-9" d="M574.9,696.55a22.05,22.05,0,0,1-16.14,21.21l-1.47.41v14.47h-8.68a1.6,1.6,0,0,0-.1-.31V718.17l-1.47-.41a22.05,22.05,0,0,1-16.14-21.21c0-.14,0-.28,0-.41,2.89,5.46,8,11.8,16.06,12.67,14.17,1.52,23.44-.4,26.83-19.11A21.6,21.6,0,0,1,574.9,696.55Z"/><path class="cls-9" d="M537.28,453.16a33,33,0,0,1-2,4l-79,8.06c-1.11-.9-2-1.74-2.8-2.47Z"/><path class="cls-8" d="M581.09,322.37c-38.22-7.43-95.79-16-138.86-11-25.68,3-42.93,8.33-54.49,13.9a170,170,0,0,0-2.06-19.42A229,229,0,0,1,425,297.13c33.14-4.5,85.84-5,155.12,15.3C580.29,314.28,580.71,318.07,581.09,322.37Z"/><path class="cls-14" d="M398.79,277.34c.23,7.24,4.38,13.25,10.93,18.25-23.14,4.5-37.88,10.78-44.13,13.84.14-20.6,6.58-38,13-50.21a122.06,122.06,0,0,1,21.63-29.77c6.08-6.09,22.17-15.76,43.09-22.75l.1.2S397.62,239.77,398.79,277.34Z"/><path class="cls-8" d="M710.76,757.21c-5.68-9.58-17.46-19.53-26.65-26.75-7-5.5-15-5.42-27-5.28a229,229,0,0,1-31.88-1.4c-6.72-.8-12.16-3-16.25-6.68a1.42,1.42,0,0,0-.13-.12,23.37,23.37,0,0,1-3.12-3.39c-3.65-4.92-5.1-10.83-5.59-15.84,3.6,7.36,14.06,20.33,42.86,18.63,39.91-2.35,58.69,11.74,65.73,23.48C711.45,744.44,711.6,751,710.76,757.21Z"/><path class="cls-8" d="M608,870.51c-4.89,1.14-9.31,1.57-12,.52-3.75-1.44-6.24-3.86-7.21-7,0,0,1.48-11.31,19-21.89l-.13.12c-9.23,9.23-1.77,25.57-1.44,26.26l.15.26A6.88,6.88,0,0,0,608,870.51Z"/><path class="cls-14" d="M816.09,688.78l.73,1.39c-.78-.52-1.53-1-2.23-1.43Z"/><path class="cls-17" d="M644.14,483.94s15.26-5.87,37.57,30.53,44.6,48.13,55.17,61,49.3,75.13,49.3,75.13-34-86.87-78.65-133.83S644.14,483.94,644.14,483.94Z"/><path class="cls-17" d="M499.75,203.38s45.78,10.56,54,37.56,30.52,28.18,35.22,48.13C589,289.07,573.71,205.73,499.75,203.38Z"/><path class="cls-17" d="M287.66,583.34l44.61-62.61s20.35-30.52,47-27.39c0,0-25.05,5.47-31.31,24.26s-17.21,36.78-30.52,40.69S287.66,583.34,287.66,583.34Z"/><path class="cls-17" d="M560.79,549.68s55.57-57.13,36.79-90c0,0,18,7.05,13.3,24.26S580.36,540.29,560.79,549.68Z"/><path class="cls-17" d="M458.27,552s-73.56-43-57.91-80.61C400.36,471.42,360.45,506.64,458.27,552Z"/><path class="cls-14" d="M586,491.86c1.72-9.67.69-16.93-3.07-21.58a13.05,13.05,0,0,0-5.85-4.15,117,117,0,0,0,10.1-18.83C606.15,466.59,586,491.86,586,491.86Z"/><path class="cls-14" d="M406.5,475.6c-1.58,4-1,9.15,1.7,15.34l-1.58-.73s-9.31-17.59-.18-28.79c1.49,2.64,3.25,5.49,5.31,8.46A10.63,10.63,0,0,0,406.5,475.6Z"/><path class="cls-1" d="M858.21,262a8.62,8.62,0,0,1-1.7,12.84,7.43,7.43,0,0,1-5.58,12.32H806.31a6.67,6.67,0,0,1-6.66-6.66V247.79a29.55,29.55,0,0,1,5.93-19.26c3.41-4.38,6.34-7.55,8.7-10.09s4.09-4.42,4.51-5.63a14.3,14.3,0,0,0-.19-3.38c-.27-2.33-.59-5,.11-7A7.87,7.87,0,0,1,827.9,197c4.3.76,10.36,6.72,10.36,17.55,0,5.26-2.65,11.3-5.44,16.18h20.47a9.49,9.49,0,0,1,6.1,16.76A8.65,8.65,0,0,1,858.21,262Z"/><path class="cls-5" d="M812.93,152.24a95.92,95.92,0,1,0,95.91,95.92A96,96,0,0,0,812.93,152.24Zm0,187.83a91.92,91.92,0,1,1,91.91-91.91A92,92,0,0,1,812.93,340.07Z"/><path class="cls-5" d="M790.65,241.12h-14a6.75,6.75,0,0,0-6.74,6.74v39a6.74,6.74,0,0,0,6.74,6.74h14a6.74,6.74,0,0,0,6.74-6.74v-39A6.75,6.75,0,0,0,790.65,241.12Zm2.74,45.7a2.74,2.74,0,0,1-2.74,2.74h-14a2.74,2.74,0,0,1-2.74-2.74v-39a2.74,2.74,0,0,1,2.74-2.74h14a2.74,2.74,0,0,1,2.74,2.74Z"/><path class="cls-5" d="M862.78,254.35a8.64,8.64,0,0,0-3.39-6.86,9.49,9.49,0,0,0-6.1-16.76H832.82c2.79-4.88,5.44-10.92,5.44-16.18,0-10.83-6.06-16.79-10.36-17.55a7.87,7.87,0,0,0-9.19,5.45c-.7,2-.38,4.65-.11,7a14.3,14.3,0,0,1,.19,3.38c-.42,1.21-2.22,3.16-4.51,5.63s-5.29,5.71-8.7,10.09a29.55,29.55,0,0,0-5.93,19.26v32.69a6.67,6.67,0,0,0,6.66,6.66h44.62a7.43,7.43,0,0,0,5.58-12.32,8.62,8.62,0,0,0,1.7-12.84A8.65,8.65,0,0,0,862.78,254.35Zm-8.65-4.64a4.65,4.65,0,1,1,0,9.29h-2.44v4a4.65,4.65,0,1,1,0,9.29h-.76v4a3.43,3.43,0,0,1,0,6.85H806.31a2.67,2.67,0,0,1-2.66-2.66v-33A26,26,0,0,1,808.73,231c3.31-4.23,6.18-7.33,8.49-9.82,2.8-3,4.66-5,5.35-7,.46-1.33.25-3.1,0-5.16-.22-1.81-.49-4.06-.09-5.22a4,4,0,0,1,3.76-2.89,5.43,5.43,0,0,1,1,.09c2.38.42,7.06,5,7.06,13.61,0,4.27-2.37,10.34-6.67,17.11l-2,3.07h27.65a5.49,5.49,0,0,1,0,11v4Z"/><path class="cls-18" d="M334.15,226.33,316.44,221l5.62-18.6-18.61-5.63L308.81,179l18.6,5.62L333,166l17.72,5.36L345.13,190l18.6,5.62-5.35,17.72-18.6-5.62Zm-12.73-8,10.06,3,5.62-18.61,18.61,5.62,3-10-18.61-5.62,5.62-18.61-10.05-3-5.63,18.61L311.48,184l-3,10,18.61,5.62Z"/><path class="cls-18" d="M165.59,667.26A21.28,21.28,0,1,1,186.87,646,21.31,21.31,0,0,1,165.59,667.26Zm0-38.56A17.28,17.28,0,1,0,182.87,646,17.3,17.3,0,0,0,165.59,628.7Z"/><rect class="cls-19" x="815.72" y="613.94" width="44.99" height="4" transform="translate(-196.64 721.07) rotate(-42.11)"/><rect class="cls-19" x="803.87" y="600.83" width="44.99" height="4" transform="translate(-190.91 709.74) rotate(-42.11)"/><path class="cls-20" d="M344.37,113.09a2.38,2.38,0,1,1-2.38-2.38A2.39,2.39,0,0,1,344.37,113.09Z"/><path class="cls-20" d="M360.14,113.09a2.39,2.39,0,1,1-2.38-2.38A2.39,2.39,0,0,1,360.14,113.09Z"/><path class="cls-20" d="M375.9,113.09a2.38,2.38,0,1,1-2.38-2.38A2.38,2.38,0,0,1,375.9,113.09Z"/><path class="cls-20" d="M391.67,113.09a2.38,2.38,0,1,1-2.38-2.38A2.38,2.38,0,0,1,391.67,113.09Z"/><path class="cls-20" d="M407.44,113.09a2.38,2.38,0,1,1-2.38-2.38A2.39,2.39,0,0,1,407.44,113.09Z"/><path class="cls-20" d="M423.21,113.09a2.38,2.38,0,1,1-2.38-2.38A2.39,2.39,0,0,1,423.21,113.09Z"/><path class="cls-20" d="M439,113.09a2.39,2.39,0,1,1-2.39-2.38A2.39,2.39,0,0,1,439,113.09Z"/><path class="cls-20" d="M454.74,113.09a2.38,2.38,0,1,1-2.38-2.38A2.38,2.38,0,0,1,454.74,113.09Z"/><path class="cls-20" d="M470.51,113.09a2.38,2.38,0,1,1-2.38-2.38A2.39,2.39,0,0,1,470.51,113.09Z"/><path class="cls-20" d="M352.36,125.58A2.38,2.38,0,1,1,350,123.2,2.39,2.39,0,0,1,352.36,125.58Z"/><path class="cls-20" d="M368.13,125.58a2.39,2.39,0,1,1-2.39-2.38A2.39,2.39,0,0,1,368.13,125.58Z"/><path class="cls-20" d="M383.89,125.58a2.38,2.38,0,1,1-2.38-2.38A2.38,2.38,0,0,1,383.89,125.58Z"/><path class="cls-20" d="M399.66,125.58a2.38,2.38,0,1,1-2.38-2.38A2.39,2.39,0,0,1,399.66,125.58Z"/><path class="cls-20" d="M415.43,125.58a2.38,2.38,0,1,1-2.38-2.38A2.39,2.39,0,0,1,415.43,125.58Z"/><path class="cls-20" d="M431.2,125.58a2.39,2.39,0,1,1-2.39-2.38A2.39,2.39,0,0,1,431.2,125.58Z"/><path class="cls-20" d="M447,125.58a2.38,2.38,0,1,1-2.38-2.38A2.38,2.38,0,0,1,447,125.58Z"/><path class="cls-20" d="M462.73,125.58a2.38,2.38,0,1,1-2.38-2.38A2.38,2.38,0,0,1,462.73,125.58Z"/><path class="cls-20" d="M478.5,125.58a2.38,2.38,0,1,1-2.38-2.38A2.39,2.39,0,0,1,478.5,125.58Z"/><path class="cls-18" d="M705.93,423.28a2.38,2.38,0,1,1-2.38-2.39A2.38,2.38,0,0,1,705.93,423.28Z"/><path class="cls-18" d="M721.7,423.28a2.38,2.38,0,1,1-2.38-2.39A2.38,2.38,0,0,1,721.7,423.28Z"/><path class="cls-18" d="M737.47,423.28a2.38,2.38,0,1,1-2.38-2.39A2.39,2.39,0,0,1,737.47,423.28Z"/><path class="cls-18" d="M705.94,435.28a2.38,2.38,0,1,1-2.29-2.47A2.37,2.37,0,0,1,705.94,435.28Z"/><path class="cls-18" d="M721.7,435.84a2.38,2.38,0,1,1-2.29-2.46A2.38,2.38,0,0,1,721.7,435.84Z"/><path class="cls-18" d="M737.46,436.41a2.38,2.38,0,1,1-2.3-2.47A2.38,2.38,0,0,1,737.46,436.41Z"/><path class="cls-1" d="M253.41,537.72a63.83,63.83,0,1,1-63.83-63.83A63.9,63.9,0,0,1,253.41,537.72Z"/><path class="cls-21" d="M167.4,552.2a23.6,23.6,0,0,0,17.44,10.45l.44,0q1,.09,2,.09c.69,0,1.37,0,2.05-.09l.43,0a23.62,23.62,0,0,0,17.45-10.45,60.76,60.76,0,0,0-39.85,0Z"/><path class="cls-22" d="M165.53,548.65a64.24,64.24,0,0,1,43.59,0,21.33,21.33,0,0,0,1.53-6.16H164A21.68,21.68,0,0,0,165.53,548.65Z"/><path class="cls-10" d="M187.66,502.71A36.36,36.36,0,1,0,224,539.07,36.4,36.4,0,0,0,187.66,502.71Zm11.85,23.74a1.83,1.83,0,0,1,1-1.72l9.09-4.58a1.83,1.83,0,1,1,1.65,3.27l-6.06,3.05,6.06,3a1.83,1.83,0,0,1-.83,3.47,1.71,1.71,0,0,1-.82-.2l-9.09-4.58a1.83,1.83,0,0,1-1-1.72v0Zm-34.88-3a1.83,1.83,0,1,1,1.65-3.27l9.09,4.58a1.83,1.83,0,0,1,1,1.72v0a1.83,1.83,0,0,1-1,1.72l-9.09,4.58a1.71,1.71,0,0,1-.82.2,1.83,1.83,0,0,1-.83-3.47l6.06-3ZM212.8,550.2l.08,0-1,1.89-.21.38c-.16.29-.31.57-.48.85l-.42.71-.2.3a27.19,27.19,0,0,1-16.29,11.55l-.43.1-1,.23q-.71.13-1.44.24l-.63.08-1.16.11-.56.05c-.57,0-1.15,0-1.73,0s-1.15,0-1.73,0l-.55-.05-1.17-.11-.63-.08-1.44-.24-1-.23-.43-.1A27.14,27.14,0,0,1,164,554.34l-.18-.27c-.15-.24-.29-.48-.43-.72s-.31-.54-.46-.82-.15-.26-.22-.4l-1-1.89.09,0a25.2,25.2,0,0,1-1.95-9.71v-2h54.84v2A25.19,25.19,0,0,1,212.8,550.2Z"/><path class="cls-5" d="M187.66,498.71A40.36,40.36,0,1,0,228,539.07,40.41,40.41,0,0,0,187.66,498.71Zm0,76.71A36.36,36.36,0,1,1,224,539.07,36.4,36.4,0,0,1,187.66,575.42Z"/><path class="cls-5" d="M200.51,528.21l9.09,4.58a1.71,1.71,0,0,0,.82.2,1.83,1.83,0,0,0,.83-3.47l-6.06-3,6.06-3.05a1.83,1.83,0,1,0-1.65-3.27l-9.09,4.58a1.83,1.83,0,0,0-1,1.72v0A1.83,1.83,0,0,0,200.51,528.21Z"/><path class="cls-5" d="M163.82,532a1.84,1.84,0,0,0,1.64,1,1.71,1.71,0,0,0,.82-.2l9.09-4.58a1.83,1.83,0,0,0,1-1.72v0a1.83,1.83,0,0,0-1-1.72l-9.09-4.58a1.83,1.83,0,1,0-1.65,3.27l6.06,3.05-6.06,3A1.84,1.84,0,0,0,163.82,532Z"/><path class="cls-5" d="M159.9,538.49v2a25.2,25.2,0,0,0,1.95,9.71l-.09,0,1,1.89c.07.14.15.27.22.4s.3.55.46.82.28.48.43.72l.18.27a27.14,27.14,0,0,0,16.31,11.58l.43.1,1,.23,1.44.24.63.08,1.17.11.55.05c.58,0,1.15,0,1.73,0s1.16,0,1.73,0l.56-.05,1.16-.11.63-.08q.73-.11,1.44-.24l1-.23.43-.1a27.19,27.19,0,0,0,16.29-11.55l.2-.3.42-.71c.17-.28.32-.56.48-.85l.21-.38,1-1.89-.08,0a25.19,25.19,0,0,0,1.94-9.71v-2Zm29.9,24.16-.43,0c-.68.06-1.36.09-2.05.09s-1.37,0-2-.09l-.44,0A23.6,23.6,0,0,1,167.4,552.2a60.76,60.76,0,0,1,39.85,0A23.62,23.62,0,0,1,189.8,562.65Zm19.32-14a64.24,64.24,0,0,0-43.59,0,21.68,21.68,0,0,1-1.54-6.16h46.66A21.33,21.33,0,0,1,209.12,548.65Z"/><path class="cls-5" d="M189.58,473.89a63.83,63.83,0,1,0,63.83,63.83A63.9,63.9,0,0,0,189.58,473.89Zm0,123.66a59.83,59.83,0,1,1,59.83-59.83A59.9,59.9,0,0,1,189.58,597.55Z"/><path class="cls-1" d="M702.63,122.16c0,35.19-29,63.82-64.61,63.82s-64.61-28.63-64.61-63.82,29-63.83,64.61-63.83S702.63,87,702.63,122.16Z"/><path class="cls-22" d="M650.62,106.06a9.55,9.55,0,0,0-8.71,5.6,2.51,2.51,0,0,1-2.3,1.52h0a2.51,2.51,0,0,1-2.3-1.52,9.55,9.55,0,0,0-8.71-5.6c-4.84,0-10,4.52-10,11.24,0,10.75,17.37,23.46,21,24.61h.06c3.69-1.18,21-13.88,21-24.62C660.65,110.58,655.47,106.06,650.62,106.06Z"/><path class="cls-22" d="M640.87,145.72a3.67,3.67,0,0,1-.47.13,3.09,3.09,0,0,1-.62.09h-.33a3.65,3.65,0,0,1-.69-.11,3.12,3.12,0,0,1-.47-.13c-4.86-1.54-23.72-15.35-23.72-28.4,0-9.12,7.25-15.24,14-15.24a13.71,13.71,0,0,1,11,5.61,13.71,13.71,0,0,1,11-5.61c6.78,0,14,6.12,14,15.24C664.65,130.35,645.79,144.16,640.87,145.72Z"/><path class="cls-5" d="M650.62,102.06a13.71,13.71,0,0,0-11,5.61,13.71,13.71,0,0,0-11-5.61c-6.78,0-14,6.12-14,15.24,0,13,18.86,26.86,23.72,28.4a3.12,3.12,0,0,0,.47.13,3.65,3.65,0,0,0,.69.11h.33a3.09,3.09,0,0,0,.62-.09,3.67,3.67,0,0,0,.47-.13c4.92-1.56,23.78-15.37,23.78-28.42C664.65,108.18,657.4,102.06,650.62,102.06Zm-9.64,8Zm-1.36,31.85h-.06c-3.62-1.15-21-13.86-21-24.61,0-6.72,5.19-11.24,10-11.24a9.55,9.55,0,0,1,8.71,5.6,2.51,2.51,0,0,0,2.3,1.52h0a2.51,2.51,0,0,0,2.3-1.52,9.55,9.55,0,0,1,8.71-5.6c4.85,0,10,4.52,10,11.24C660.65,128,643.31,140.74,639.62,141.92Z"/><path class="cls-5" d="M638,58.33c-35.63,0-64.61,28.63-64.61,63.83S602.39,186,638,186s64.61-28.63,64.61-63.82S673.64,58.33,638,58.33ZM638,182c-33.42,0-60.61-26.84-60.61-59.82S604.6,62.33,638,62.33s60.61,26.84,60.61,59.83S671.44,182,638,182Z"/><path class="cls-1" d="M903.37,478.44a74.2,74.2,0,1,1-74.2-74.2A74.28,74.28,0,0,1,903.37,478.44Z"/><path class="cls-5" d="M829.17,404.24a74.2,74.2,0,1,0,74.2,74.2A74.29,74.29,0,0,0,829.17,404.24Zm0,144.39a70.2,70.2,0,1,1,70.2-70.19A70.28,70.28,0,0,1,829.17,548.63Z"/><path class="cls-22" d="M827.67,466.55a13.26,13.26,0,1,0,13.26,13.26A13.28,13.28,0,0,0,827.67,466.55Z"/><path class="cls-15" d="M827.67,454.29a25.52,25.52,0,1,0,25.52,25.52A25.55,25.55,0,0,0,827.67,454.29Zm0,42.78a17.26,17.26,0,1,1,17.26-17.26A17.28,17.28,0,0,1,827.67,497.07Z"/><path class="cls-5" d="M853.84,479.81a2,2,0,0,1,2-2h1.28a29.56,29.56,0,0,0-27.45-27.45v1.27a2,2,0,0,1-4,0v-1.27a29.56,29.56,0,0,0-27.45,27.45h1.28a2,2,0,0,1,0,4h-1.28a29.56,29.56,0,0,0,27.45,27.45V508a2,2,0,0,1,4,0v1.28a29.56,29.56,0,0,0,27.45-27.45h-1.28A2,2,0,0,1,853.84,479.81Zm-26.17,25.52a25.52,25.52,0,1,1,25.52-25.52A25.55,25.55,0,0,1,827.67,505.33Z"/><path class="cls-5" d="M827.67,462.55a17.26,17.26,0,1,0,17.26,17.26A17.28,17.28,0,0,0,827.67,462.55Zm0,30.52a13.26,13.26,0,1,1,13.26-13.26A13.28,13.28,0,0,1,827.67,493.07Z"/><path class="cls-5" d="M829.67,450.36V434.42a2,2,0,1,0-4,0v15.94c.66,0,1.33-.07,2-.07S829,450.32,829.67,450.36Z"/><path class="cls-5" d="M827.67,453.63a2,2,0,0,0,2-2v-1.27c-.66,0-1.33-.07-2-.07s-1.34,0-2,.07v1.27A2,2,0,0,0,827.67,453.63Z"/><path class="cls-5" d="M825.67,509.26V525.2a2,2,0,0,0,4,0V509.26c-.66,0-1.33.07-2,.07S826.33,509.3,825.67,509.26Z"/><path class="cls-5" d="M827.67,506a2,2,0,0,0-2,2v1.28c.66,0,1.33.07,2,.07s1.34,0,2-.07V508A2,2,0,0,0,827.67,506Z"/><path class="cls-5" d="M873.06,477.81H857.12c0,.66.07,1.33.07,2s0,1.34-.07,2h15.94a2,2,0,0,0,0-4Z"/><path class="cls-5" d="M857.12,477.81h-1.28a2,2,0,0,0,0,4h1.28c0-.66.07-1.33.07-2S857.16,478.47,857.12,477.81Z"/><path class="cls-5" d="M798.22,477.81H782.28a2,2,0,0,0,0,4h15.94c0-.66-.07-1.33-.07-2S798.18,478.47,798.22,477.81Z"/><path class="cls-5" d="M801.5,479.81a2,2,0,0,0-2-2h-1.28c0,.66-.07,1.33-.07,2s0,1.34.07,2h1.28A2,2,0,0,0,801.5,479.81Z"/><g class="cls-23"><ellipse class="cls-8" cx="432.96" cy="433.11" rx="21.13" ry="17.22"/></g><g class="cls-23"><ellipse class="cls-8" cx="553.48" cy="425.28" rx="21.13" ry="17.22"/></g><path class="cls-1" d="M291.49,381.91l38.25,42.66-50.41-23a106.57,106.57,0,1,1,12.16-19.62Z"/><path class="cls-5" d="M291.49,381.91a105.72,105.72,0,0,0,10.44-46.1,106.88,106.88,0,1,0-22.6,65.72l50.41,23Zm-13.4,14.65-1,1.28a102.54,102.54,0,1,1,10.19-16.48l-.6,1.21L314,413Z"/><path class="cls-1" d="M228.7,322.59a8.44,8.44,0,1,0-8.44-8.44A8.45,8.45,0,0,0,228.7,322.59Zm0-13.13a4.7,4.7,0,1,1-4.7,4.69A4.69,4.69,0,0,1,228.7,309.46Z"/><path class="cls-12" d="M179.31,301.8l-9.15-7.88L147,300.2c-10.72,21-24.23,55.49-16,60.79,9.47,6.06,28.06-12.71,34.43-20.46l.59-.73H223.9l.6.73c6.37,7.75,25,26.52,34.42,20.46,8.28-5.3-5.23-39.75-16-60.79l-23.16-6.28-9.15,7.88H179.31Zm-18,24.79a12.44,12.44,0,1,1,12.44-12.44A12.44,12.44,0,0,1,161.27,326.59Zm23.22,6.52h-2.44v2.43a2,2,0,0,1-4,0v-2.43h-2.43a2,2,0,0,1,0-4h2.43v-2.44a2,2,0,0,1,4,0v2.44h2.44a2,2,0,0,1,0,4Zm44.21-31.39a12.44,12.44,0,1,1-12.44,12.43A12.45,12.45,0,0,1,228.7,301.72Zm-13.78,29a6.31,6.31,0,1,1-6.3-6.31A6.31,6.31,0,0,1,214.92,330.72Zm-13.44-17.61a4.7,4.7,0,1,1-4.7,4.69A4.7,4.7,0,0,1,201.48,313.11Zm-8.3,4.69a4.7,4.7,0,1,1-4.69-4.69A4.69,4.69,0,0,1,193.18,317.8Z"/><path class="cls-1" d="M161.27,305.72a8.44,8.44,0,1,0,8.44,8.43A8.44,8.44,0,0,0,161.27,305.72Zm0,13.13a4.7,4.7,0,1,1,4.7-4.7A4.69,4.69,0,0,1,161.27,318.85Z"/><path class="cls-1" d="M208.62,333a2.31,2.31,0,1,0-2.31-2.3A2.3,2.3,0,0,0,208.62,333Z"/><path class="cls-5" d="M184.05,341.8a2,2,0,0,1,2-2h-20l-.59.73c-6.37,7.75-25,26.52-34.43,20.46-8.27-5.3,5.24-39.75,16-60.79l23.16-6.28,9.15,7.88h6.74a2,2,0,0,1,0-4H180.8l-9.64-8.29-26.92,7.29-.4.79A304,304,0,0,0,131,326.76c-7.84,21.21-8.54,33.5-2.14,37.6a11.69,11.69,0,0,0,6.44,1.83c12.89,0,28.81-17.88,32.62-22.39h18.1A2,2,0,0,1,184.05,341.8Z"/><path class="cls-5" d="M161.27,301.72a12.44,12.44,0,1,0,12.44,12.43A12.44,12.44,0,0,0,161.27,301.72Zm0,20.87a8.44,8.44,0,1,1,8.44-8.44A8.45,8.45,0,0,1,161.27,322.59Z"/><path class="cls-5" d="M161.27,309.46a4.7,4.7,0,1,0,4.7,4.69A4.69,4.69,0,0,0,161.27,309.46Z"/><path class="cls-5" d="M183.79,317.8a4.7,4.7,0,1,0,4.7-4.69A4.7,4.7,0,0,0,183.79,317.8Z"/><path class="cls-5" d="M178.05,335.54a2,2,0,0,0,4,0v-2.43h-4Z"/><path class="cls-5" d="M182.05,326.67a2,2,0,0,0-4,0v2.44h4Z"/><path class="cls-5" d="M175.62,329.11a2,2,0,0,0,0,4h2.43v-4Z"/><path class="cls-5" d="M184.49,329.11h-2.44v4h2.44a2,2,0,0,0,0-4Z"/><rect class="cls-5" x="178.05" y="329.11" width="4" height="4"/><path class="cls-5" d="M246.13,297.59l-.4-.79-26.92-7.29-9.64,8.29h-5.25a2,2,0,1,1,0,4h6.74l9.15-7.88L243,300.2c10.72,21,24.23,55.49,16,60.79-9.46,6.06-28.05-12.71-34.42-20.46l-.6-.73h-20a2,2,0,1,1,0,4H222c3.81,4.51,19.73,22.39,32.62,22.39a11.69,11.69,0,0,0,6.44-1.83c6.4-4.1,5.7-16.39-2.14-37.6A304,304,0,0,0,246.13,297.59Z"/><path class="cls-5" d="M205.92,341.8a2,2,0,0,0-2-2H186.05a2,2,0,0,0,0,4h17.87A2,2,0,0,0,205.92,341.8Z"/><path class="cls-5" d="M184.05,299.8a2,2,0,0,0,2,2h17.87a2,2,0,1,0,0-4H186.05A2,2,0,0,0,184.05,299.8Z"/><path class="cls-5" d="M228.7,326.59a12.44,12.44,0,1,0-12.44-12.44A12.45,12.45,0,0,0,228.7,326.59Zm0-20.87a8.44,8.44,0,1,1-8.44,8.43A8.44,8.44,0,0,1,228.7,305.72Z"/><path class="cls-5" d="M228.7,318.85a4.7,4.7,0,1,0-4.7-4.7A4.69,4.69,0,0,0,228.7,318.85Z"/><path class="cls-5" d="M201.48,322.5a4.7,4.7,0,1,0-4.7-4.7A4.7,4.7,0,0,0,201.48,322.5Z"/><path class="cls-5" d="M202.31,330.72a6.31,6.31,0,1,0,6.31-6.31A6.31,6.31,0,0,0,202.31,330.72Zm6.31-2.31a2.31,2.31,0,1,1-2.31,2.31A2.31,2.31,0,0,1,208.62,328.41Z"/><rect class="cls-24" y="984.95" width="1024" height="39.05"/><path class="cls-1" d="M318.17,992.84h4.31a13.64,13.64,0,0,1,8.38,2.46,8.13,8.13,0,0,1,3.31,7,8.41,8.41,0,0,1-3.29,7.17,13.66,13.66,0,0,1-8.48,2.49h-4.23Zm2.6,16.93h.91a18.69,18.69,0,0,0,3.82-.37,9,9,0,0,0,3.13-1.24,6.5,6.5,0,0,0,2.14-2.28,6.89,6.89,0,0,0,.8-3.48,7.31,7.31,0,0,0-.78-3.51,5.75,5.75,0,0,0-2.2-2.28,10.72,10.72,0,0,0-3.11-1.21,17,17,0,0,0-3.8-.38h-.91Z"/><path class="cls-1" d="M338,1006.4a4.19,4.19,0,0,0,1.1,2.76,3.62,3.62,0,0,0,2.79,1.17,4,4,0,0,0,2.23-.57,5.89,5.89,0,0,0,1.64-1.74l2.11,1.09a6.53,6.53,0,0,1-2.51,2.38,7.13,7.13,0,0,1-3.49.86,6,6,0,0,1-6.36-6.23,6.6,6.6,0,0,1,1.63-4.61,6,6,0,0,1,4.67-1.78,5.64,5.64,0,0,1,4.51,1.78,6.64,6.64,0,0,1,1.55,4.53v.36Zm7.38-1.73a3.47,3.47,0,0,0-1.15-2.16,3.6,3.6,0,0,0-2.42-.8,3.88,3.88,0,0,0-1.34.22,3.56,3.56,0,0,0-1.11.62,3.49,3.49,0,0,0-.8,1,3.66,3.66,0,0,0-.43,1.17Z"/><path class="cls-1" d="M355.18,1002.8a1.78,1.78,0,0,0-1.66-1,1.49,1.49,0,0,0-.94.34,1,1,0,0,0-.41.83,1,1,0,0,0,.31.77,3.46,3.46,0,0,0,.87.6l.56.24.63.26a2.52,2.52,0,0,0,.39.15,1.22,1.22,0,0,1,.25.11,7,7,0,0,1,2.18,1.34,2.64,2.64,0,0,1,.8,2,3.58,3.58,0,0,1-1.32,2.81,4.67,4.67,0,0,1-3.13,1.11,5.44,5.44,0,0,1-2.72-.72,4.75,4.75,0,0,1-1.05-.83,3.71,3.71,0,0,1-.7-1.11l2.12-.88a2.7,2.7,0,0,0,2.35,1.52,2,2,0,0,0,1.08-.3,1.77,1.77,0,0,0,.73-.73,1.27,1.27,0,0,0,.1-1,1.81,1.81,0,0,0-.86-1l-2.43-1.19a9.86,9.86,0,0,1-1.1-.61,3.71,3.71,0,0,1-.78-.64,2.63,2.63,0,0,1-.46-.77,3.28,3.28,0,0,1,1-3.4,3.85,3.85,0,0,1,2.71-1,3.73,3.73,0,0,1,3.54,2.08Z"/><path class="cls-1" d="M364.1,994.66a1.41,1.41,0,0,1-.49,1.09,1.73,1.73,0,0,1-1.22.46,1.69,1.69,0,0,1-1.21-.46,1.42,1.42,0,0,1-.5-1.09,1.5,1.5,0,0,1,.5-1.12,1.66,1.66,0,0,1,1.21-.47,1.7,1.7,0,0,1,1.22.47A1.49,1.49,0,0,1,364.1,994.66Zm-.47,17.29h-2.48v-11.86h2.48Z"/><path class="cls-1" d="M379.72,1011.72a8.57,8.57,0,0,1-1.38,5.2q-1.38,1.82-4.92,1.82a6.81,6.81,0,0,1-4.48-1.44,5.07,5.07,0,0,1-1.77-3.93h2.49a3,3,0,0,0,1.06,2.47,4.33,4.33,0,0,0,2.81.87,3.32,3.32,0,0,0,2.92-1.14,5.58,5.58,0,0,0,.78-3.22v-2.25h-.05a5.56,5.56,0,0,1-1.92,1.66,5.26,5.26,0,0,1-2.47.59,5.77,5.77,0,0,1-4.54-1.85,6.55,6.55,0,0,1-1.66-4.56,6.15,6.15,0,0,1,1.69-4.36,5.67,5.67,0,0,1,4.39-1.85,5.23,5.23,0,0,1,4.51,2.39h.05v-2h2.49Zm-6.55-1.39a3.9,3.9,0,0,0,3.07-1.25,4.4,4.4,0,0,0,1.14-3.06,4.32,4.32,0,0,0-1.14-3,3.89,3.89,0,0,0-3.07-1.24,3.79,3.79,0,0,0-3,1.27,4.33,4.33,0,0,0-1.11,3,4.4,4.4,0,0,0,1.11,3A3.82,3.82,0,0,0,373.17,1010.33Z"/><path class="cls-1" d="M385.44,1001.68h.06a3.68,3.68,0,0,1,1.6-1.44,5.2,5.2,0,0,1,2.3-.51,5.72,5.72,0,0,1,2.15.36,3.4,3.4,0,0,1,1.42,1,4.1,4.1,0,0,1,.78,1.61,9.44,9.44,0,0,1,.23,2.17V1012H391.5v-6.79a4.6,4.6,0,0,0-.56-2.56,2.56,2.56,0,0,0-2.29-.84,4.13,4.13,0,0,0-1.08.12,2.55,2.55,0,0,0-.77.32,2.27,2.27,0,0,0-.56.5,5.88,5.88,0,0,0-.41.61,1.82,1.82,0,0,0-.15.45c-.05.19-.09.38-.13.57s-.06.39-.08.59,0,.35,0,.46V1012H383v-11.86h2.48Z"/><path class="cls-1" d="M405.2,990h2.49v12.11h.06a5.33,5.33,0,0,1,4.5-2.33,5.68,5.68,0,0,1,4.4,1.85,6.19,6.19,0,0,1,1.68,4.36,6.59,6.59,0,0,1-1.65,4.56,5.77,5.77,0,0,1-4.54,1.85,5.26,5.26,0,0,1-2.47-.59,5.38,5.38,0,0,1-1.92-1.66h-.06V1012H405.2Zm6.44,20.38a3.87,3.87,0,0,0,3.07-1.25,4.4,4.4,0,0,0,1.14-3.06,4.32,4.32,0,0,0-1.14-3,3.87,3.87,0,0,0-3.07-1.24,3.8,3.8,0,0,0-3,1.27,4.33,4.33,0,0,0-1.11,3,4.4,4.4,0,0,0,1.11,3A3.83,3.83,0,0,0,411.64,1010.33Z"/><path class="cls-1" d="M418.69,1000.09h2.91l4.36,7.52,4.06-7.52h2.8l-10.48,18.65h-2.82l5.09-8.82Z"/><path class="cls-1" d="M445.36,1007.16,443,1012H440.2L450.15,992l10,19.92h-2.79l-2.38-4.79Zm4.79-9.91-3.71,7.73h7.41Z"/><path class="cls-1" d="M464.16,1012h-2.49V990h2.49Z"/><path class="cls-1" d="M470.29,1012h-2.48V990h2.48Z"/><path class="cls-1" d="M479.75,1002.87v1.91H473.7v-1.91Z"/><path class="cls-1" d="M489.42,992.26a4.9,4.9,0,0,0-1.66-.48,1.37,1.37,0,0,0-1.16.46,2.79,2.79,0,0,0-.5,1.16c-.05.33-.08.6-.09.8s0,.46,0,.8v5.09h3.43v2.12H486V1012h-2.48v-9.74h-1.14v-2.12h1.14v-5.78q0-4.66,4.17-4.67a5.06,5.06,0,0,1,1.74.31Z"/><path class="cls-1" d="M493.26,1002h.08a3.87,3.87,0,0,1,1.39-1.67,3.8,3.8,0,0,1,2.15-.61,4.1,4.1,0,0,1,2.05.58l-1.13,2.09a2.41,2.41,0,0,0-1.52-.49,2.52,2.52,0,0,0-2.55,1.42,5.37,5.37,0,0,0-.37,1.31,9.31,9.31,0,0,0-.1,1.48V1012h-2.48v-11.86h2.48Z"/><path class="cls-1" d="M501.8,1006.4a4.25,4.25,0,0,0,1.11,2.76,3.62,3.62,0,0,0,2.79,1.17,4,4,0,0,0,2.23-.57,6,6,0,0,0,1.64-1.74l2.1,1.09a6.43,6.43,0,0,1-2.5,2.38,7.17,7.17,0,0,1-3.5.86,6,6,0,0,1-6.35-6.23,6.6,6.6,0,0,1,1.63-4.61,6,6,0,0,1,4.67-1.78,5.6,5.6,0,0,1,4.5,1.78,6.64,6.64,0,0,1,1.55,4.53v.36Zm7.39-1.73a3.36,3.36,0,0,0-3.57-3,3.88,3.88,0,0,0-1.34.22,3.45,3.45,0,0,0-1.11.62,3.49,3.49,0,0,0-.8,1,3.43,3.43,0,0,0-.43,1.17Z"/><path class="cls-1" d="M515.29,1006.4a4.25,4.25,0,0,0,1.11,2.76,3.59,3.59,0,0,0,2.78,1.17,4,4,0,0,0,2.23-.57,5.89,5.89,0,0,0,1.64-1.74l2.11,1.09a6.57,6.57,0,0,1-2.5,2.38,7.2,7.2,0,0,1-3.5.86,6,6,0,0,1-6.36-6.23,6.64,6.64,0,0,1,1.63-4.61,6,6,0,0,1,4.67-1.78,5.64,5.64,0,0,1,4.51,1.78,6.64,6.64,0,0,1,1.55,4.53v.36Zm7.38-1.73a3.47,3.47,0,0,0-1.15-2.16,3.58,3.58,0,0,0-2.42-.8,3.92,3.92,0,0,0-1.34.22,3.4,3.4,0,0,0-1.1.62,3.32,3.32,0,0,0-.8,1,3.24,3.24,0,0,0-.43,1.17Z"/><path class="cls-1" d="M533.2,1002.87v1.91h-6.05v-1.91Z"/><path class="cls-1" d="M546.11,1010.1h-.06a5.56,5.56,0,0,1-1.92,1.66,5.23,5.23,0,0,1-2.47.59,5.77,5.77,0,0,1-4.54-1.85,6.59,6.59,0,0,1-1.65-4.56,6.19,6.19,0,0,1,1.68-4.36,5.67,5.67,0,0,1,4.39-1.85,5.34,5.34,0,0,1,4.51,2.33h.06V990h2.49v22h-2.49Zm-4.07.23a3.89,3.89,0,0,0,3.07-1.25,4.39,4.39,0,0,0,1.13-3.06,4.31,4.31,0,0,0-1.13-3,3.88,3.88,0,0,0-3.07-1.24,3.79,3.79,0,0,0-3,1.27,4.32,4.32,0,0,0-1.1,3,4.39,4.39,0,0,0,1.1,3A3.82,3.82,0,0,0,542,1010.33Z"/><path class="cls-1" d="M552.66,1001.56a7,7,0,0,1,4.92-1.83,7,7,0,0,1,4.89,1.83,6,6,0,0,1,0,9,7,7,0,0,1-4.89,1.82,7,7,0,0,1-4.92-1.82,6,6,0,0,1,0-9Zm.49,4.48a4,4,0,0,0,1.3,2.92,4.36,4.36,0,0,0,3.13,1.21,4.42,4.42,0,0,0,3.12-1.21A4,4,0,0,0,562,1006a3.88,3.88,0,0,0-1.29-2.91,4.42,4.42,0,0,0-3.12-1.22,4.36,4.36,0,0,0-3.13,1.22A3.9,3.9,0,0,0,553.15,1006Z"/><path class="cls-1" d="M571.17,1007.64l3.82-8.21,3.79,8.21,3.75-7.55h2.82l-6.57,12.26-3.79-7.93-3.82,7.93-6.57-12.26h2.81Z"/><path class="cls-1" d="M589.08,1001.68h.06a3.65,3.65,0,0,1,1.61-1.44,5.16,5.16,0,0,1,2.29-.51,5.78,5.78,0,0,1,2.16.36,3.43,3.43,0,0,1,1.41,1,4,4,0,0,1,.78,1.61,8.92,8.92,0,0,1,.23,2.17V1012h-2.49v-6.79a4.61,4.61,0,0,0-.55-2.56,2.56,2.56,0,0,0-2.29-.84,4.18,4.18,0,0,0-1.08.12,2.55,2.55,0,0,0-.77.32,2.47,2.47,0,0,0-.56.5,5.88,5.88,0,0,0-.41.61,3.36,3.36,0,0,0-.15.45,5.78,5.78,0,0,0-.12.57c0,.2-.07.39-.09.59s0,.35,0,.46V1012H586.6v-11.86h2.48Z"/><path class="cls-1" d="M603.65,1012h-2.49V990h2.49Z"/><path class="cls-1" d="M608,1001.56a7,7,0,0,1,4.92-1.83,7,7,0,0,1,4.89,1.83,6,6,0,0,1,0,9,7,7,0,0,1-4.89,1.82,7,7,0,0,1-4.92-1.82,6,6,0,0,1,0-9Zm.5,4.48a4,4,0,0,0,1.29,2.92,4.64,4.64,0,0,0,6.25,0,4,4,0,0,0,1.3-2.92,3.93,3.93,0,0,0-1.3-2.91,4.61,4.61,0,0,0-6.25,0A3.92,3.92,0,0,0,608.52,1006Z"/><path class="cls-1" d="M634.25,1012h-2.49v-1.85h0a5.22,5.22,0,0,1-4.4,2.25,5.83,5.83,0,0,1-4.54-1.85,6.59,6.59,0,0,1-1.65-4.56,6.19,6.19,0,0,1,1.68-4.36,5.73,5.73,0,0,1,4.43-1.85,5.34,5.34,0,0,1,4.48,2.33h0v-2h2.49Zm-6.55-1.62a3.88,3.88,0,0,0,3.06-1.25,4.4,4.4,0,0,0,1.14-3.06,4.32,4.32,0,0,0-1.14-3,3.87,3.87,0,0,0-3.06-1.24,3.79,3.79,0,0,0-3,1.27,4.32,4.32,0,0,0-1.1,3,4.39,4.39,0,0,0,1.1,3A3.82,3.82,0,0,0,627.7,1010.33Z"/><path class="cls-1" d="M647.12,1010.1h0a5.47,5.47,0,0,1-1.92,1.66,5.23,5.23,0,0,1-2.47.59,5.74,5.74,0,0,1-4.53-1.85,6.56,6.56,0,0,1-1.67-4.56,6.15,6.15,0,0,1,1.69-4.36,5.69,5.69,0,0,1,4.39-1.85,5.34,5.34,0,0,1,4.51,2.33h0V990h2.49v22h-2.49Zm-4.06.23a3.9,3.9,0,0,0,3.07-1.25,4.39,4.39,0,0,0,1.13-3.06,4.31,4.31,0,0,0-1.13-3,3.89,3.89,0,0,0-3.07-1.24,3.79,3.79,0,0,0-3,1.27,4.33,4.33,0,0,0-1.11,3,4.4,4.4,0,0,0,1.11,3A3.82,3.82,0,0,0,643.06,1010.33Z"/><path class="cls-1" d="M656.75,1010.88a1.36,1.36,0,0,1-.47,1,1.64,1.64,0,0,1-1.14.43,1.6,1.6,0,0,1-1.13-.43,1.36,1.36,0,0,1,0-2.06,1.56,1.56,0,0,1,1.13-.44,1.6,1.6,0,0,1,1.14.44A1.36,1.36,0,0,1,656.75,1010.88Z"/><path class="cls-1" d="M670.35,1003.46a5,5,0,0,0-3.71-1.6,4.27,4.27,0,0,0-3.07,1.24,4.05,4.05,0,0,0-1.24,2.92,3.92,3.92,0,0,0,1.24,3,4.6,4.6,0,0,0,3.23,1.2,4.85,4.85,0,0,0,3.55-1.58v2.92a8.09,8.09,0,0,1-3.57.78,7.13,7.13,0,0,1-4.92-1.8,5.64,5.64,0,0,1-2-4.43,5.87,5.87,0,0,1,2-4.56,7.24,7.24,0,0,1,5.06-1.83,7.12,7.12,0,0,1,3.43.79Z"/><path class="cls-1" d="M673.86,1001.56a7,7,0,0,1,4.91-1.83,6.93,6.93,0,0,1,4.89,1.83,6,6,0,0,1,0,9,6.93,6.93,0,0,1-4.89,1.82,7,7,0,0,1-4.91-1.82,6,6,0,0,1,0-9Zm.49,4.48a4,4,0,0,0,1.3,2.92,4.35,4.35,0,0,0,3.12,1.21,4.42,4.42,0,0,0,3.13-1.21,4,4,0,0,0,1.3-2.92,3.93,3.93,0,0,0-1.3-2.91,4.43,4.43,0,0,0-3.13-1.22,4.36,4.36,0,0,0-3.12,1.22A3.9,3.9,0,0,0,674.35,1006Z"/><path class="cls-1" d="M690.35,1001.58h.06a4.33,4.33,0,0,1,1.48-1.33,4,4,0,0,1,1.94-.52,4.19,4.19,0,0,1,3.74,2.11,4.36,4.36,0,0,1,1.67-1.54,4.82,4.82,0,0,1,2.31-.57c2.86,0,4.28,1.71,4.28,5.12v7.1h-2.49v-6.72c0-.3,0-.6,0-.9a5,5,0,0,0-.15-.86,2.53,2.53,0,0,0-.33-.77,2.3,2.3,0,0,0-.61-.64,2.44,2.44,0,0,0-1.27-.3,2.75,2.75,0,0,0-1.33.3,2.34,2.34,0,0,0-.81.7,3.65,3.65,0,0,0-.46,1,8.79,8.79,0,0,0-.21,1.14c0,.34,0,.73,0,1.17V1012h-2.48v-6.29c0-.4,0-.74,0-1a7.3,7.3,0,0,0-.17-1,2.52,2.52,0,0,0-.36-1,2,2,0,0,0-.69-.63,2.13,2.13,0,0,0-1.13-.28,2.33,2.33,0,0,0-2.46,1.52,6.22,6.22,0,0,0-.33,1.34,11,11,0,0,0-.09,1.5V1012h-2.48v-11.86h2.48Z"/><rect class="cls-1" x="260.19" y="1003.41" width="35.21" height="1.58"/><rect class="cls-1" x="728.61" y="1003.41" width="35.2" height="1.58"/></svg>